G04 #@! TF.FileFunction,Profile,NP*
%FSLAX46Y46*%
G04 Gerber Fmt 4.6, Leading zero omitted, Abs format (unit mm)*
G04 Created by KiCad (PCBNEW 4.0.7) date 05/05/18 17:10:26*
%MOMM*%
%LPD*%
G01*
G04 APERTURE LIST*
%ADD10C,0.100000*%
%ADD11C,0.150000*%
G04 APERTURE END LIST*
D10*
D11*
X33000000Y-36000000D02*
X33000000Y-88000000D01*
X31000000Y-35500000D02*
X32500000Y-35500000D01*
X30500000Y-25000000D02*
X30500000Y-35000000D01*
X228500000Y-24500000D02*
X31000000Y-24500000D01*
X229000000Y-21000000D02*
X229000000Y-24000000D01*
X35500000Y-92500000D02*
X145000000Y-92500000D01*
X35000000Y-92000000D02*
X35000000Y-89000000D01*
X33500000Y-88500000D02*
X34500000Y-88500000D01*
X228500000Y-24500000D02*
G75*
G03X229000000Y-24000000I0J500000D01*
G01*
X31000000Y-24500000D02*
G75*
G03X30500000Y-25000000I0J-500000D01*
G01*
X30500000Y-35000000D02*
G75*
G03X31000000Y-35500000I500000J0D01*
G01*
X33000000Y-36000000D02*
G75*
G03X32500000Y-35500000I-500000J0D01*
G01*
X33000000Y-88000000D02*
G75*
G03X33500000Y-88500000I500000J0D01*
G01*
X35000000Y-89000000D02*
G75*
G03X34500000Y-88500000I-500000J0D01*
G01*
X35000000Y-92000000D02*
G75*
G03X35500000Y-92500000I500000J0D01*
G01*
X145500000Y-91250000D02*
X145500000Y-92000000D01*
X155000000Y-90750000D02*
X146000000Y-90750000D01*
X155500000Y-92000000D02*
X155500000Y-91250000D01*
X248750000Y-92500000D02*
X156000000Y-92500000D01*
X145000000Y-92500000D02*
G75*
G03X145500000Y-92000000I0J500000D01*
G01*
X146000000Y-90750000D02*
G75*
G03X145500000Y-91250000I0J-500000D01*
G01*
X155500000Y-91250000D02*
G75*
G03X155000000Y-90750000I-500000J0D01*
G01*
X155500000Y-92000000D02*
G75*
G03X156000000Y-92500000I500000J0D01*
G01*
X249250000Y-92000000D02*
X249250000Y-88500000D01*
X254500000Y-87500000D02*
X254500000Y-42000000D01*
X249750000Y-88000000D02*
X254000000Y-88000000D01*
X248750000Y-92500000D02*
G75*
G03X249250000Y-92000000I0J500000D01*
G01*
X249750000Y-88000000D02*
G75*
G03X249250000Y-88500000I0J-500000D01*
G01*
X254000000Y-88000000D02*
G75*
G03X254500000Y-87500000I0J500000D01*
G01*
X252500000Y-41500000D02*
X254000000Y-41500000D01*
X254500000Y-42000000D02*
G75*
G03X254000000Y-41500000I-500000J0D01*
G01*
X252000000Y-41000000D02*
X252000000Y-25000000D01*
X252000000Y-41000000D02*
G75*
G03X252500000Y-41500000I500000J0D01*
G01*
X247000000Y-24500000D02*
X251500000Y-24500000D01*
X245000000Y-21000000D02*
X245000000Y-24000000D01*
X247000000Y-24500000D02*
X245500000Y-24500000D01*
X252000000Y-25000000D02*
G75*
G03X251500000Y-24500000I-500000J0D01*
G01*
X245000000Y-24000000D02*
G75*
G03X245500000Y-24500000I500000J0D01*
G01*
X229500000Y-20500000D02*
X244500000Y-20500000D01*
X245000000Y-21000000D02*
G75*
G03X244500000Y-20500000I-500000J0D01*
G01*
X229500000Y-20500000D02*
G75*
G03X229000000Y-21000000I0J-500000D01*
G01*
M02*
