G04 #@! TF.FileFunction,Soldermask,Top*
%FSLAX46Y46*%
G04 Gerber Fmt 4.6, Leading zero omitted, Abs format (unit mm)*
G04 Created by KiCad (PCBNEW 4.0.7) date 05/05/18 17:10:26*
%MOMM*%
%LPD*%
G01*
G04 APERTURE LIST*
%ADD10C,0.100000*%
%ADD11C,2.686000*%
%ADD12R,2.000000X2.000000*%
%ADD13C,2.000000*%
%ADD14O,1.400000X1.400000*%
%ADD15C,3.295600*%
%ADD16C,2.082800*%
%ADD17R,2.100000X2.100000*%
%ADD18O,2.100000X2.100000*%
G04 APERTURE END LIST*
D10*
D11*
X166846250Y-63976250D03*
X160496250Y-66516250D03*
X185896250Y-63976250D03*
X179546250Y-66516250D03*
D12*
X239000000Y-52150000D03*
D13*
X239000000Y-44350000D03*
D11*
X250190000Y-25876250D03*
X243840000Y-28416250D03*
X57308750Y-25876250D03*
X50958750Y-28416250D03*
X76358750Y-25876250D03*
X70008750Y-28416250D03*
X95408750Y-25876250D03*
X89058750Y-28416250D03*
X114458750Y-25876250D03*
X108108750Y-28416250D03*
X133508750Y-25876250D03*
X127158750Y-28416250D03*
X152558750Y-25876250D03*
X146208750Y-28416250D03*
X171608750Y-25876250D03*
X165258750Y-28416250D03*
X209708750Y-25876250D03*
X203358750Y-28416250D03*
X228758750Y-25876250D03*
X222408750Y-28416250D03*
X62071250Y-44926250D03*
X55721250Y-47466250D03*
X81121250Y-44926250D03*
X74771250Y-47466250D03*
X100171250Y-44926250D03*
X93821250Y-47466250D03*
X119221250Y-44926250D03*
X112871250Y-47466250D03*
X138271250Y-44926250D03*
X131921250Y-47466250D03*
X157321250Y-44926250D03*
X150971250Y-47466250D03*
X176371250Y-44926250D03*
X170021250Y-47466250D03*
X195421250Y-44926250D03*
X189071250Y-47466250D03*
X214471250Y-44926250D03*
X208121250Y-47466250D03*
X233521250Y-44926250D03*
X227171250Y-47466250D03*
X252571250Y-44926250D03*
X246221250Y-47466250D03*
X47783750Y-63976250D03*
X41433750Y-66516250D03*
X71596308Y-63976308D03*
X65246308Y-66516308D03*
X90646324Y-63976308D03*
X84296324Y-66516308D03*
X109696250Y-63976250D03*
X103346250Y-66516250D03*
X128746250Y-63976250D03*
X122396250Y-66516250D03*
X147796250Y-63976250D03*
X141446250Y-66516250D03*
X204946250Y-63976250D03*
X198596250Y-66516250D03*
X223996250Y-63976250D03*
X217646250Y-66516250D03*
X245427500Y-63976250D03*
X239077500Y-66516250D03*
X40640000Y-44926250D03*
X34290000Y-47466250D03*
X38258750Y-25876250D03*
X31908750Y-28416250D03*
X64452500Y-83026250D03*
X58102500Y-85566250D03*
X104933750Y-83026250D03*
X98583750Y-85566250D03*
D14*
X237000000Y-28000000D03*
X238600000Y-28000000D03*
X235400000Y-28000000D03*
X237800000Y-26800000D03*
X236200000Y-26800000D03*
D15*
X240450000Y-22950000D03*
X233550000Y-22950000D03*
D11*
X85883750Y-83026250D03*
X79533750Y-85566250D03*
X200183750Y-83026250D03*
X193833750Y-85566250D03*
X221615000Y-83026250D03*
X215265000Y-85566250D03*
D12*
X45243788Y-36046902D03*
D13*
X45243788Y-28246902D03*
D12*
X64293804Y-36046902D03*
D13*
X64293804Y-28246902D03*
D12*
X83343820Y-36046902D03*
D13*
X83343820Y-28246902D03*
D12*
X102393836Y-36046902D03*
D13*
X102393836Y-28246902D03*
D12*
X121443852Y-36046902D03*
D13*
X121443852Y-28246902D03*
D12*
X140493750Y-36046875D03*
D13*
X140493750Y-28246875D03*
D12*
X159543750Y-36046875D03*
D13*
X159543750Y-28246875D03*
D12*
X178593750Y-36046875D03*
D13*
X178593750Y-28246875D03*
D12*
X197643750Y-36046875D03*
D13*
X197643750Y-28246875D03*
D12*
X216693750Y-36046875D03*
D13*
X216693750Y-28246875D03*
D12*
X50006250Y-53906250D03*
D13*
X50006250Y-46106250D03*
D12*
X69056250Y-53906250D03*
D13*
X69056250Y-46106250D03*
D12*
X88106250Y-53906250D03*
D13*
X88106250Y-46106250D03*
D12*
X107156250Y-53906250D03*
D13*
X107156250Y-46106250D03*
D12*
X126206250Y-53906250D03*
D13*
X126206250Y-46106250D03*
D12*
X145256250Y-53906250D03*
D13*
X145256250Y-46106250D03*
D12*
X164306250Y-53906250D03*
D13*
X164306250Y-46106250D03*
D12*
X183356250Y-53906250D03*
D13*
X183356250Y-46106250D03*
D12*
X202406250Y-53906250D03*
D13*
X202406250Y-46106250D03*
D12*
X221456250Y-53906250D03*
D13*
X221456250Y-46106250D03*
D12*
X242000000Y-53906250D03*
D13*
X242000000Y-46106250D03*
D12*
X54768750Y-74146875D03*
D13*
X54768750Y-66346875D03*
D12*
X59531300Y-74146875D03*
D13*
X59531300Y-66346875D03*
D12*
X78581316Y-74146934D03*
D13*
X78581316Y-66346934D03*
D12*
X97631250Y-74146875D03*
D13*
X97631250Y-66346875D03*
D12*
X116681250Y-74146875D03*
D13*
X116681250Y-66346875D03*
D12*
X135731250Y-74146875D03*
D13*
X135731250Y-66346875D03*
D12*
X154781250Y-74146875D03*
D13*
X154781250Y-66346875D03*
D12*
X173831250Y-74146875D03*
D13*
X173831250Y-66346875D03*
D12*
X192881250Y-74146875D03*
D13*
X192881250Y-66346875D03*
D12*
X211931250Y-74146875D03*
D13*
X211931250Y-66346875D03*
D12*
X232171875Y-74146875D03*
D13*
X232171875Y-66346875D03*
D12*
X44381250Y-59531250D03*
D13*
X36581250Y-59531250D03*
D12*
X44381250Y-40481250D03*
D13*
X36581250Y-40481250D03*
D12*
X52387500Y-78253125D03*
D13*
X52387500Y-86053125D03*
D12*
X73818750Y-78253125D03*
D13*
X73818750Y-86053125D03*
D12*
X92868750Y-78253125D03*
D13*
X92868750Y-86053125D03*
D12*
X111918750Y-78253125D03*
D13*
X111918750Y-86053125D03*
D12*
X150018750Y-78253125D03*
D13*
X150018750Y-86053125D03*
D12*
X188118750Y-78253125D03*
D13*
X188118750Y-86053125D03*
D12*
X208359375Y-78253125D03*
D13*
X208359375Y-86053125D03*
D11*
X190658908Y-25876276D03*
X184308908Y-28416276D03*
D16*
X181200000Y-57620000D03*
X178660000Y-57620000D03*
X176120000Y-57620000D03*
X173580000Y-57620000D03*
X171040000Y-57620000D03*
X168500000Y-57620000D03*
X165960000Y-57620000D03*
X163420000Y-57620000D03*
X160880000Y-57620000D03*
X158340000Y-57620000D03*
X155800000Y-57620000D03*
X153260000Y-57620000D03*
X153260000Y-42380000D03*
X155800000Y-42380000D03*
X158340000Y-42380000D03*
X160880000Y-42380000D03*
X163420000Y-42380000D03*
X165960000Y-42380000D03*
X168500000Y-42380000D03*
X171040000Y-42380000D03*
X173580000Y-42380000D03*
X176120000Y-42380000D03*
X178660000Y-42380000D03*
X181200000Y-42380000D03*
D17*
X241040000Y-39500000D03*
D18*
X238500000Y-39500000D03*
X235960000Y-39500000D03*
X233420000Y-39500000D03*
D17*
X239315625Y-60880625D03*
D18*
X239315625Y-58340625D03*
X239315625Y-55800625D03*
D11*
X133508750Y-83026250D03*
X127158750Y-85566250D03*
X171608750Y-83026250D03*
X165258750Y-85566250D03*
M02*
