M48
INCH,TZ
T1C0.016
T2C0.028
T3C0.028
T4C0.039
T5C0.040
T6C0.059
T7C0.076
%
G90
G05
T1
X1.875Y-1.1719
X2.1949Y-1.3484
X2.372Y-1.3386
X3.2874Y-2.2933
X4.685Y-2.3031
X5.0787Y-2.3819
X5.3445Y-2.3819
X5.6988Y-1.5157
X6.5256Y-1.5157
X6.5945Y-2.0571
X6.6339Y-2.3819
X6.8701Y-1.5846
X6.8898Y-2.1654
X6.939Y-2.0472
X7.0374Y-2.4409
X7.3819Y-2.3031
X7.7854Y-2.1752
X7.8445Y-2.2835
X8.2874Y-1.5551
X8.8976Y-1.565
X8.937Y-1.4862
X9.0256Y-1.6339
X9.2028Y-1.3484
X9.3209Y-1.6929
X9.5276Y-1.3386
T2
X1.4402Y-1.5938
X1.4402Y-2.3438
X1.7473Y-1.5938
X1.7473Y-2.3438
X1.7813Y-1.1121
X1.7813Y-1.4192
X1.9688Y-1.8152
X1.9688Y-2.1223
X2.0625Y-3.0808
X2.0625Y-3.3879
X2.1562Y-2.6121
X2.1562Y-2.9192
X2.3438Y-2.6121
X2.3438Y-2.9192
X2.5313Y-1.1121
X2.5313Y-1.4192
X2.7188Y-1.8152
X2.7188Y-2.1223
X2.9062Y-3.0808
X2.9062Y-3.3879
X3.0938Y-2.6121
X3.0938Y-2.9192
X3.2813Y-1.1121
X3.2813Y-1.4192
X3.4688Y-1.8152
X3.4688Y-2.1223
X3.6562Y-3.0808
X3.6562Y-3.3879
X3.8438Y-2.6121
X3.8438Y-2.9192
X4.0313Y-1.1121
X4.0313Y-1.4192
X4.2188Y-1.8152
X4.2188Y-2.1223
X4.4062Y-3.0808
X4.4062Y-3.3879
X4.5938Y-2.6121
X4.5938Y-2.9192
X4.7813Y-1.1121
X4.7813Y-1.4192
X4.9688Y-1.8152
X4.9688Y-2.1223
X5.3438Y-2.6121
X5.3438Y-2.9192
X5.5312Y-1.1121
X5.5312Y-1.4192
X5.7188Y-1.8152
X5.7188Y-2.1223
X5.9062Y-3.0808
X5.9062Y-3.3879
X6.0938Y-2.6121
X6.0938Y-2.9192
X6.2812Y-1.1121
X6.2812Y-1.4192
X6.4688Y-1.8152
X6.4688Y-2.1223
X6.8438Y-2.6121
X6.8438Y-2.9192
X7.0312Y-1.1121
X7.0312Y-1.4192
X7.2188Y-1.8152
X7.2188Y-2.1223
X7.4062Y-3.0808
X7.4062Y-3.3879
X7.5938Y-2.6121
X7.5938Y-2.9192
X7.7812Y-1.1121
X7.7812Y-1.4192
X7.9688Y-1.8152
X7.9688Y-2.1223
X8.2031Y-3.0808
X8.2031Y-3.3879
X8.3438Y-2.6121
X8.3438Y-2.9192
X8.5312Y-1.1121
X8.5312Y-1.4192
X8.7188Y-1.8152
X8.7188Y-2.1223
X9.1406Y-2.6121
X9.1406Y-2.9192
X9.4094Y-1.7461
X9.4094Y-2.0531
X9.5276Y-1.8152
X9.5276Y-2.1223
T3
X9.2677Y-1.1024
X9.2992Y-1.0551
X9.3307Y-1.1024
X9.3622Y-1.0551
X9.3937Y-1.1024
T4
X9.1898Y-1.5551
X9.2898Y-1.5551
X9.3898Y-1.5551
X9.4219Y-2.1969
X9.4219Y-2.2969
X9.4219Y-2.3969
X9.4898Y-1.5551
T5
X6.0339Y-1.6685
X6.0339Y-2.2685
X6.1339Y-1.6685
X6.1339Y-2.2685
X6.2339Y-1.6685
X6.2339Y-2.2685
X6.3339Y-1.6685
X6.3339Y-2.2685
X6.4339Y-1.6685
X6.4339Y-2.2685
X6.5339Y-1.6685
X6.5339Y-2.2685
X6.6339Y-1.6685
X6.6339Y-2.2685
X6.7339Y-1.6685
X6.7339Y-2.2685
X6.8339Y-1.6685
X6.8339Y-2.2685
X6.9339Y-1.6685
X6.9339Y-2.2685
X7.0339Y-1.6685
X7.0339Y-2.2685
X7.1339Y-1.6685
X7.1339Y-2.2685
T6
X1.2562Y-1.1187
X1.35Y-1.8687
X1.5062Y-1.0188
X1.6Y-1.7688
X1.6312Y-2.6187
X1.8812Y-2.5187
X2.0063Y-1.1187
X2.1938Y-1.8687
X2.2563Y-1.0188
X2.2875Y-3.3687
X2.4438Y-1.7688
X2.5375Y-3.2687
X2.5688Y-2.6188
X2.7563Y-1.1187
X2.8188Y-2.5188
X2.9438Y-1.8687
X3.0063Y-1.0188
X3.1313Y-3.3687
X3.1938Y-1.7688
X3.3188Y-2.6188
X3.3813Y-3.2687
X3.5063Y-1.1187
X3.5688Y-2.5188
X3.6938Y-1.8687
X3.7563Y-1.0188
X3.8813Y-3.3687
X3.9438Y-1.7688
X4.0687Y-2.6187
X4.1312Y-3.2687
X4.2562Y-1.1187
X4.3187Y-2.5187
X4.4437Y-1.8687
X4.5062Y-1.0188
X4.6937Y-1.7688
X4.8187Y-2.6187
X5.0062Y-1.1187
X5.0062Y-3.3687
X5.0687Y-2.5187
X5.1937Y-1.8687
X5.2562Y-1.0188
X5.2562Y-3.2687
X5.4437Y-1.7688
X5.5687Y-2.6187
X5.7562Y-1.1187
X5.8187Y-2.5187
X5.9437Y-1.8687
X6.0062Y-1.0188
X6.1937Y-1.7688
X6.3187Y-2.6187
X6.5062Y-1.1187
X6.5062Y-3.3687
X6.5687Y-2.5187
X6.6937Y-1.8687
X6.7562Y-1.0188
X6.7562Y-3.2687
X6.9437Y-1.7688
X7.0687Y-2.6187
X7.2563Y-1.1188
X7.3187Y-2.5187
X7.4437Y-1.8687
X7.5063Y-1.0188
X7.6312Y-3.3687
X7.6937Y-1.7688
X7.8187Y-2.6187
X7.8812Y-3.2687
X8.0062Y-1.1187
X8.0687Y-2.5187
X8.1937Y-1.8687
X8.2562Y-1.0188
X8.4437Y-1.7688
X8.475Y-3.3687
X8.5687Y-2.6187
X8.725Y-3.2687
X8.7562Y-1.1187
X8.8187Y-2.5187
X8.9437Y-1.8687
X9.0062Y-1.0188
X9.1937Y-1.7688
X9.4125Y-2.6187
X9.6Y-1.1187
X9.6625Y-2.5187
X9.6937Y-1.8687
X9.85Y-1.0188
X9.9437Y-1.7688
T7
X9.1949Y-0.9035
X9.4665Y-0.9035
T0
M30
