M48
INCH,TZ
T1C0.067
T2C0.157
%
G90
G05
T1
X1.2063Y-1.2188
X1.3Y-1.9688
X1.5813Y-2.7188
X1.6062Y-1.2188
X1.7Y-1.9688
X1.9563Y-1.2188
X1.9812Y-2.7188
X2.1437Y-1.9688
X2.2375Y-3.4688
X2.3562Y-1.2188
X2.5188Y-2.7188
X2.5437Y-1.9688
X2.6375Y-3.4688
X2.7062Y-1.2188
X2.8937Y-1.9688
X2.9188Y-2.7188
X3.0812Y-3.4688
X3.1062Y-1.2188
X3.2688Y-2.7188
X3.2937Y-1.9688
X3.4562Y-1.2188
X3.4812Y-3.4688
X3.6437Y-1.9688
X3.6688Y-2.7188
X3.8312Y-3.4688
X3.8562Y-1.2188
X4.0187Y-2.7188
X4.0438Y-1.9688
X4.2062Y-1.2188
X4.2313Y-3.4688
X4.3937Y-1.9688
X4.4188Y-2.7188
X4.6063Y-1.2188
X4.7687Y-2.7188
X4.7938Y-1.9688
X4.9562Y-1.2188
X4.9562Y-3.4688
X5.1437Y-1.9688
X5.1688Y-2.7188
X5.3563Y-1.2188
X5.3563Y-3.4688
X5.5187Y-2.7188
X5.5438Y-1.9688
X5.7062Y-1.2188
X5.8937Y-1.9688
X5.9188Y-2.7188
X6.1063Y-1.2188
X6.2687Y-2.7188
X6.2938Y-1.9688
X6.4562Y-1.2188
X6.4562Y-3.4688
X6.6437Y-1.9688
X6.6688Y-2.7188
X6.8563Y-1.2188
X6.8563Y-3.4688
X7.0187Y-2.7188
X7.0438Y-1.9688
X7.2063Y-1.2188
X7.3937Y-1.9688
X7.4188Y-2.7188
X7.5812Y-3.4688
X7.6063Y-1.2188
X7.7687Y-2.7188
X7.7938Y-1.9688
X7.9562Y-1.2188
X7.9813Y-3.4688
X8.1437Y-1.9688
X8.1687Y-2.7188
X8.3562Y-1.2188
X8.425Y-3.4688
X8.5187Y-2.7188
X8.5437Y-1.9688
X8.7062Y-1.2188
X8.825Y-3.4688
X8.8937Y-1.9688
X8.9187Y-2.7188
X9.1062Y-1.2188
X9.2937Y-1.9688
X9.3625Y-2.7188
X9.55Y-1.2188
X9.6437Y-1.9688
X9.7625Y-2.7188
X9.95Y-1.2188
X10.0437Y-1.9688
T2
X1.4062Y-1.2188
X1.5Y-1.9688
X1.7812Y-2.7188
X2.1562Y-1.2188
X2.3438Y-1.9688
X2.4375Y-3.4688
X2.7188Y-2.7188
X2.9062Y-1.2188
X3.0938Y-1.9688
X3.2812Y-3.4688
X3.4688Y-2.7188
X3.6562Y-1.2188
X3.8438Y-1.9688
X4.0312Y-3.4688
X4.2188Y-2.7188
X4.4062Y-1.2188
X4.5938Y-1.9688
X4.9688Y-2.7188
X5.1562Y-1.2188
X5.1562Y-3.4688
X5.3438Y-1.9688
X5.7188Y-2.7188
X5.9062Y-1.2188
X6.0938Y-1.9688
X6.4688Y-2.7188
X6.6562Y-1.2188
X6.6562Y-3.4688
X6.8438Y-1.9688
X7.2188Y-2.7188
X7.4063Y-1.2188
X7.5938Y-1.9688
X7.7812Y-3.4688
X7.9688Y-2.7188
X8.1562Y-1.2188
X8.3438Y-1.9688
X8.625Y-3.4688
X8.7188Y-2.7188
X8.9062Y-1.2188
X9.0938Y-1.9688
X9.5625Y-2.7188
X9.75Y-1.2188
X9.8438Y-1.9688
T0
M30
