G04 #@! TF.FileFunction,Legend,Top*
%FSLAX46Y46*%
G04 Gerber Fmt 4.6, Leading zero omitted, Abs format (unit mm)*
G04 Created by KiCad (PCBNEW 4.0.7) date 05/05/18 17:10:26*
%MOMM*%
%LPD*%
G01*
G04 APERTURE LIST*
%ADD10C,0.100000*%
%ADD11C,0.381000*%
%ADD12C,0.203200*%
G04 APERTURE END LIST*
D10*
D11*
X157956250Y-62706250D02*
X159734250Y-62706250D01*
X168878250Y-62706250D02*
X170656250Y-62706250D01*
X170656250Y-62706250D02*
X170656250Y-64484250D01*
X170656250Y-73628250D02*
X170656250Y-75406250D01*
X170656250Y-75406250D02*
X168878250Y-75406250D01*
X159734250Y-75406250D02*
X157956250Y-75406250D01*
X157956250Y-75406250D02*
X157956250Y-73628250D01*
X157956250Y-64484250D02*
X157956250Y-62706250D01*
X177006250Y-62706250D02*
X178784250Y-62706250D01*
X187928250Y-62706250D02*
X189706250Y-62706250D01*
X189706250Y-62706250D02*
X189706250Y-64484250D01*
X189706250Y-73628250D02*
X189706250Y-75406250D01*
X189706250Y-75406250D02*
X187928250Y-75406250D01*
X178784250Y-75406250D02*
X177006250Y-75406250D01*
X177006250Y-75406250D02*
X177006250Y-73628250D01*
X177006250Y-64484250D02*
X177006250Y-62706250D01*
X241300000Y-24606250D02*
X243078000Y-24606250D01*
X252222000Y-24606250D02*
X254000000Y-24606250D01*
X254000000Y-24606250D02*
X254000000Y-26384250D01*
X254000000Y-35528250D02*
X254000000Y-37306250D01*
X254000000Y-37306250D02*
X252222000Y-37306250D01*
X243078000Y-37306250D02*
X241300000Y-37306250D01*
X241300000Y-37306250D02*
X241300000Y-35528250D01*
X241300000Y-26384250D02*
X241300000Y-24606250D01*
X48418750Y-24606250D02*
X50196750Y-24606250D01*
X59340750Y-24606250D02*
X61118750Y-24606250D01*
X61118750Y-24606250D02*
X61118750Y-26384250D01*
X61118750Y-35528250D02*
X61118750Y-37306250D01*
X61118750Y-37306250D02*
X59340750Y-37306250D01*
X50196750Y-37306250D02*
X48418750Y-37306250D01*
X48418750Y-37306250D02*
X48418750Y-35528250D01*
X48418750Y-26384250D02*
X48418750Y-24606250D01*
X67468750Y-24606250D02*
X69246750Y-24606250D01*
X78390750Y-24606250D02*
X80168750Y-24606250D01*
X80168750Y-24606250D02*
X80168750Y-26384250D01*
X80168750Y-35528250D02*
X80168750Y-37306250D01*
X80168750Y-37306250D02*
X78390750Y-37306250D01*
X69246750Y-37306250D02*
X67468750Y-37306250D01*
X67468750Y-37306250D02*
X67468750Y-35528250D01*
X67468750Y-26384250D02*
X67468750Y-24606250D01*
X86518750Y-24606250D02*
X88296750Y-24606250D01*
X97440750Y-24606250D02*
X99218750Y-24606250D01*
X99218750Y-24606250D02*
X99218750Y-26384250D01*
X99218750Y-35528250D02*
X99218750Y-37306250D01*
X99218750Y-37306250D02*
X97440750Y-37306250D01*
X88296750Y-37306250D02*
X86518750Y-37306250D01*
X86518750Y-37306250D02*
X86518750Y-35528250D01*
X86518750Y-26384250D02*
X86518750Y-24606250D01*
X105568750Y-24606250D02*
X107346750Y-24606250D01*
X116490750Y-24606250D02*
X118268750Y-24606250D01*
X118268750Y-24606250D02*
X118268750Y-26384250D01*
X118268750Y-35528250D02*
X118268750Y-37306250D01*
X118268750Y-37306250D02*
X116490750Y-37306250D01*
X107346750Y-37306250D02*
X105568750Y-37306250D01*
X105568750Y-37306250D02*
X105568750Y-35528250D01*
X105568750Y-26384250D02*
X105568750Y-24606250D01*
X124618750Y-24606250D02*
X126396750Y-24606250D01*
X135540750Y-24606250D02*
X137318750Y-24606250D01*
X137318750Y-24606250D02*
X137318750Y-26384250D01*
X137318750Y-35528250D02*
X137318750Y-37306250D01*
X137318750Y-37306250D02*
X135540750Y-37306250D01*
X126396750Y-37306250D02*
X124618750Y-37306250D01*
X124618750Y-37306250D02*
X124618750Y-35528250D01*
X124618750Y-26384250D02*
X124618750Y-24606250D01*
X143668750Y-24606250D02*
X145446750Y-24606250D01*
X154590750Y-24606250D02*
X156368750Y-24606250D01*
X156368750Y-24606250D02*
X156368750Y-26384250D01*
X156368750Y-35528250D02*
X156368750Y-37306250D01*
X156368750Y-37306250D02*
X154590750Y-37306250D01*
X145446750Y-37306250D02*
X143668750Y-37306250D01*
X143668750Y-37306250D02*
X143668750Y-35528250D01*
X143668750Y-26384250D02*
X143668750Y-24606250D01*
X162718750Y-24606250D02*
X164496750Y-24606250D01*
X173640750Y-24606250D02*
X175418750Y-24606250D01*
X175418750Y-24606250D02*
X175418750Y-26384250D01*
X175418750Y-35528250D02*
X175418750Y-37306250D01*
X175418750Y-37306250D02*
X173640750Y-37306250D01*
X164496750Y-37306250D02*
X162718750Y-37306250D01*
X162718750Y-37306250D02*
X162718750Y-35528250D01*
X162718750Y-26384250D02*
X162718750Y-24606250D01*
X200818750Y-24606250D02*
X202596750Y-24606250D01*
X211740750Y-24606250D02*
X213518750Y-24606250D01*
X213518750Y-24606250D02*
X213518750Y-26384250D01*
X213518750Y-35528250D02*
X213518750Y-37306250D01*
X213518750Y-37306250D02*
X211740750Y-37306250D01*
X202596750Y-37306250D02*
X200818750Y-37306250D01*
X200818750Y-37306250D02*
X200818750Y-35528250D01*
X200818750Y-26384250D02*
X200818750Y-24606250D01*
X219868750Y-24606250D02*
X221646750Y-24606250D01*
X230790750Y-24606250D02*
X232568750Y-24606250D01*
X232568750Y-24606250D02*
X232568750Y-26384250D01*
X232568750Y-35528250D02*
X232568750Y-37306250D01*
X232568750Y-37306250D02*
X230790750Y-37306250D01*
X221646750Y-37306250D02*
X219868750Y-37306250D01*
X219868750Y-37306250D02*
X219868750Y-35528250D01*
X219868750Y-26384250D02*
X219868750Y-24606250D01*
X53181250Y-43656250D02*
X54959250Y-43656250D01*
X64103250Y-43656250D02*
X65881250Y-43656250D01*
X65881250Y-43656250D02*
X65881250Y-45434250D01*
X65881250Y-54578250D02*
X65881250Y-56356250D01*
X65881250Y-56356250D02*
X64103250Y-56356250D01*
X54959250Y-56356250D02*
X53181250Y-56356250D01*
X53181250Y-56356250D02*
X53181250Y-54578250D01*
X53181250Y-45434250D02*
X53181250Y-43656250D01*
X72231250Y-43656250D02*
X74009250Y-43656250D01*
X83153250Y-43656250D02*
X84931250Y-43656250D01*
X84931250Y-43656250D02*
X84931250Y-45434250D01*
X84931250Y-54578250D02*
X84931250Y-56356250D01*
X84931250Y-56356250D02*
X83153250Y-56356250D01*
X74009250Y-56356250D02*
X72231250Y-56356250D01*
X72231250Y-56356250D02*
X72231250Y-54578250D01*
X72231250Y-45434250D02*
X72231250Y-43656250D01*
X91281250Y-43656250D02*
X93059250Y-43656250D01*
X102203250Y-43656250D02*
X103981250Y-43656250D01*
X103981250Y-43656250D02*
X103981250Y-45434250D01*
X103981250Y-54578250D02*
X103981250Y-56356250D01*
X103981250Y-56356250D02*
X102203250Y-56356250D01*
X93059250Y-56356250D02*
X91281250Y-56356250D01*
X91281250Y-56356250D02*
X91281250Y-54578250D01*
X91281250Y-45434250D02*
X91281250Y-43656250D01*
X110331250Y-43656250D02*
X112109250Y-43656250D01*
X121253250Y-43656250D02*
X123031250Y-43656250D01*
X123031250Y-43656250D02*
X123031250Y-45434250D01*
X123031250Y-54578250D02*
X123031250Y-56356250D01*
X123031250Y-56356250D02*
X121253250Y-56356250D01*
X112109250Y-56356250D02*
X110331250Y-56356250D01*
X110331250Y-56356250D02*
X110331250Y-54578250D01*
X110331250Y-45434250D02*
X110331250Y-43656250D01*
X129381250Y-43656250D02*
X131159250Y-43656250D01*
X140303250Y-43656250D02*
X142081250Y-43656250D01*
X142081250Y-43656250D02*
X142081250Y-45434250D01*
X142081250Y-54578250D02*
X142081250Y-56356250D01*
X142081250Y-56356250D02*
X140303250Y-56356250D01*
X131159250Y-56356250D02*
X129381250Y-56356250D01*
X129381250Y-56356250D02*
X129381250Y-54578250D01*
X129381250Y-45434250D02*
X129381250Y-43656250D01*
X148431250Y-43656250D02*
X150209250Y-43656250D01*
X159353250Y-43656250D02*
X161131250Y-43656250D01*
X161131250Y-43656250D02*
X161131250Y-45434250D01*
X161131250Y-54578250D02*
X161131250Y-56356250D01*
X161131250Y-56356250D02*
X159353250Y-56356250D01*
X150209250Y-56356250D02*
X148431250Y-56356250D01*
X148431250Y-56356250D02*
X148431250Y-54578250D01*
X148431250Y-45434250D02*
X148431250Y-43656250D01*
X167481250Y-43656250D02*
X169259250Y-43656250D01*
X178403250Y-43656250D02*
X180181250Y-43656250D01*
X180181250Y-43656250D02*
X180181250Y-45434250D01*
X180181250Y-54578250D02*
X180181250Y-56356250D01*
X180181250Y-56356250D02*
X178403250Y-56356250D01*
X169259250Y-56356250D02*
X167481250Y-56356250D01*
X167481250Y-56356250D02*
X167481250Y-54578250D01*
X167481250Y-45434250D02*
X167481250Y-43656250D01*
X186531250Y-43656250D02*
X188309250Y-43656250D01*
X197453250Y-43656250D02*
X199231250Y-43656250D01*
X199231250Y-43656250D02*
X199231250Y-45434250D01*
X199231250Y-54578250D02*
X199231250Y-56356250D01*
X199231250Y-56356250D02*
X197453250Y-56356250D01*
X188309250Y-56356250D02*
X186531250Y-56356250D01*
X186531250Y-56356250D02*
X186531250Y-54578250D01*
X186531250Y-45434250D02*
X186531250Y-43656250D01*
X205581250Y-43656250D02*
X207359250Y-43656250D01*
X216503250Y-43656250D02*
X218281250Y-43656250D01*
X218281250Y-43656250D02*
X218281250Y-45434250D01*
X218281250Y-54578250D02*
X218281250Y-56356250D01*
X218281250Y-56356250D02*
X216503250Y-56356250D01*
X207359250Y-56356250D02*
X205581250Y-56356250D01*
X205581250Y-56356250D02*
X205581250Y-54578250D01*
X205581250Y-45434250D02*
X205581250Y-43656250D01*
X224631250Y-43656250D02*
X226409250Y-43656250D01*
X235553250Y-43656250D02*
X237331250Y-43656250D01*
X237331250Y-43656250D02*
X237331250Y-45434250D01*
X237331250Y-54578250D02*
X237331250Y-56356250D01*
X237331250Y-56356250D02*
X235553250Y-56356250D01*
X226409250Y-56356250D02*
X224631250Y-56356250D01*
X224631250Y-56356250D02*
X224631250Y-54578250D01*
X224631250Y-45434250D02*
X224631250Y-43656250D01*
X243681250Y-43656250D02*
X245459250Y-43656250D01*
X254603250Y-43656250D02*
X256381250Y-43656250D01*
X256381250Y-43656250D02*
X256381250Y-45434250D01*
X256381250Y-54578250D02*
X256381250Y-56356250D01*
X256381250Y-56356250D02*
X254603250Y-56356250D01*
X245459250Y-56356250D02*
X243681250Y-56356250D01*
X243681250Y-56356250D02*
X243681250Y-54578250D01*
X243681250Y-45434250D02*
X243681250Y-43656250D01*
X38893750Y-62706250D02*
X40671750Y-62706250D01*
X49815750Y-62706250D02*
X51593750Y-62706250D01*
X51593750Y-62706250D02*
X51593750Y-64484250D01*
X51593750Y-73628250D02*
X51593750Y-75406250D01*
X51593750Y-75406250D02*
X49815750Y-75406250D01*
X40671750Y-75406250D02*
X38893750Y-75406250D01*
X38893750Y-75406250D02*
X38893750Y-73628250D01*
X38893750Y-64484250D02*
X38893750Y-62706250D01*
X62706308Y-62706308D02*
X64484308Y-62706308D01*
X73628308Y-62706308D02*
X75406308Y-62706308D01*
X75406308Y-62706308D02*
X75406308Y-64484308D01*
X75406308Y-73628308D02*
X75406308Y-75406308D01*
X75406308Y-75406308D02*
X73628308Y-75406308D01*
X64484308Y-75406308D02*
X62706308Y-75406308D01*
X62706308Y-75406308D02*
X62706308Y-73628308D01*
X62706308Y-64484308D02*
X62706308Y-62706308D01*
X81756324Y-62706308D02*
X83534324Y-62706308D01*
X92678324Y-62706308D02*
X94456324Y-62706308D01*
X94456324Y-62706308D02*
X94456324Y-64484308D01*
X94456324Y-73628308D02*
X94456324Y-75406308D01*
X94456324Y-75406308D02*
X92678324Y-75406308D01*
X83534324Y-75406308D02*
X81756324Y-75406308D01*
X81756324Y-75406308D02*
X81756324Y-73628308D01*
X81756324Y-64484308D02*
X81756324Y-62706308D01*
X100806250Y-62706250D02*
X102584250Y-62706250D01*
X111728250Y-62706250D02*
X113506250Y-62706250D01*
X113506250Y-62706250D02*
X113506250Y-64484250D01*
X113506250Y-73628250D02*
X113506250Y-75406250D01*
X113506250Y-75406250D02*
X111728250Y-75406250D01*
X102584250Y-75406250D02*
X100806250Y-75406250D01*
X100806250Y-75406250D02*
X100806250Y-73628250D01*
X100806250Y-64484250D02*
X100806250Y-62706250D01*
X119856250Y-62706250D02*
X121634250Y-62706250D01*
X130778250Y-62706250D02*
X132556250Y-62706250D01*
X132556250Y-62706250D02*
X132556250Y-64484250D01*
X132556250Y-73628250D02*
X132556250Y-75406250D01*
X132556250Y-75406250D02*
X130778250Y-75406250D01*
X121634250Y-75406250D02*
X119856250Y-75406250D01*
X119856250Y-75406250D02*
X119856250Y-73628250D01*
X119856250Y-64484250D02*
X119856250Y-62706250D01*
X138906250Y-62706250D02*
X140684250Y-62706250D01*
X149828250Y-62706250D02*
X151606250Y-62706250D01*
X151606250Y-62706250D02*
X151606250Y-64484250D01*
X151606250Y-73628250D02*
X151606250Y-75406250D01*
X151606250Y-75406250D02*
X149828250Y-75406250D01*
X140684250Y-75406250D02*
X138906250Y-75406250D01*
X138906250Y-75406250D02*
X138906250Y-73628250D01*
X138906250Y-64484250D02*
X138906250Y-62706250D01*
X196056250Y-62706250D02*
X197834250Y-62706250D01*
X206978250Y-62706250D02*
X208756250Y-62706250D01*
X208756250Y-62706250D02*
X208756250Y-64484250D01*
X208756250Y-73628250D02*
X208756250Y-75406250D01*
X208756250Y-75406250D02*
X206978250Y-75406250D01*
X197834250Y-75406250D02*
X196056250Y-75406250D01*
X196056250Y-75406250D02*
X196056250Y-73628250D01*
X196056250Y-64484250D02*
X196056250Y-62706250D01*
X215106250Y-62706250D02*
X216884250Y-62706250D01*
X226028250Y-62706250D02*
X227806250Y-62706250D01*
X227806250Y-62706250D02*
X227806250Y-64484250D01*
X227806250Y-73628250D02*
X227806250Y-75406250D01*
X227806250Y-75406250D02*
X226028250Y-75406250D01*
X216884250Y-75406250D02*
X215106250Y-75406250D01*
X215106250Y-75406250D02*
X215106250Y-73628250D01*
X215106250Y-64484250D02*
X215106250Y-62706250D01*
X236537500Y-62706250D02*
X238315500Y-62706250D01*
X247459500Y-62706250D02*
X249237500Y-62706250D01*
X249237500Y-62706250D02*
X249237500Y-64484250D01*
X249237500Y-73628250D02*
X249237500Y-75406250D01*
X249237500Y-75406250D02*
X247459500Y-75406250D01*
X238315500Y-75406250D02*
X236537500Y-75406250D01*
X236537500Y-75406250D02*
X236537500Y-73628250D01*
X236537500Y-64484250D02*
X236537500Y-62706250D01*
X31750000Y-43656250D02*
X33528000Y-43656250D01*
X42672000Y-43656250D02*
X44450000Y-43656250D01*
X44450000Y-43656250D02*
X44450000Y-45434250D01*
X44450000Y-54578250D02*
X44450000Y-56356250D01*
X44450000Y-56356250D02*
X42672000Y-56356250D01*
X33528000Y-56356250D02*
X31750000Y-56356250D01*
X31750000Y-56356250D02*
X31750000Y-54578250D01*
X31750000Y-45434250D02*
X31750000Y-43656250D01*
X29368750Y-24606250D02*
X31146750Y-24606250D01*
X40290750Y-24606250D02*
X42068750Y-24606250D01*
X42068750Y-24606250D02*
X42068750Y-26384250D01*
X42068750Y-35528250D02*
X42068750Y-37306250D01*
X42068750Y-37306250D02*
X40290750Y-37306250D01*
X31146750Y-37306250D02*
X29368750Y-37306250D01*
X29368750Y-37306250D02*
X29368750Y-35528250D01*
X29368750Y-26384250D02*
X29368750Y-24606250D01*
X55562500Y-81756250D02*
X57340500Y-81756250D01*
X66484500Y-81756250D02*
X68262500Y-81756250D01*
X68262500Y-81756250D02*
X68262500Y-83534250D01*
X68262500Y-92678250D02*
X68262500Y-94456250D01*
X68262500Y-94456250D02*
X66484500Y-94456250D01*
X57340500Y-94456250D02*
X55562500Y-94456250D01*
X55562500Y-94456250D02*
X55562500Y-92678250D01*
X55562500Y-83534250D02*
X55562500Y-81756250D01*
X96043750Y-81756250D02*
X97821750Y-81756250D01*
X106965750Y-81756250D02*
X108743750Y-81756250D01*
X108743750Y-81756250D02*
X108743750Y-83534250D01*
X108743750Y-92678250D02*
X108743750Y-94456250D01*
X108743750Y-94456250D02*
X106965750Y-94456250D01*
X97821750Y-94456250D02*
X96043750Y-94456250D01*
X96043750Y-94456250D02*
X96043750Y-92678250D01*
X96043750Y-83534250D02*
X96043750Y-81756250D01*
X76993750Y-81756250D02*
X78771750Y-81756250D01*
X87915750Y-81756250D02*
X89693750Y-81756250D01*
X89693750Y-81756250D02*
X89693750Y-83534250D01*
X89693750Y-92678250D02*
X89693750Y-94456250D01*
X89693750Y-94456250D02*
X87915750Y-94456250D01*
X78771750Y-94456250D02*
X76993750Y-94456250D01*
X76993750Y-94456250D02*
X76993750Y-92678250D01*
X76993750Y-83534250D02*
X76993750Y-81756250D01*
X191293750Y-81756250D02*
X193071750Y-81756250D01*
X202215750Y-81756250D02*
X203993750Y-81756250D01*
X203993750Y-81756250D02*
X203993750Y-83534250D01*
X203993750Y-92678250D02*
X203993750Y-94456250D01*
X203993750Y-94456250D02*
X202215750Y-94456250D01*
X193071750Y-94456250D02*
X191293750Y-94456250D01*
X191293750Y-94456250D02*
X191293750Y-92678250D01*
X191293750Y-83534250D02*
X191293750Y-81756250D01*
X212725000Y-81756250D02*
X214503000Y-81756250D01*
X223647000Y-81756250D02*
X225425000Y-81756250D01*
X225425000Y-81756250D02*
X225425000Y-83534250D01*
X225425000Y-92678250D02*
X225425000Y-94456250D01*
X225425000Y-94456250D02*
X223647000Y-94456250D01*
X214503000Y-94456250D02*
X212725000Y-94456250D01*
X212725000Y-94456250D02*
X212725000Y-92678250D01*
X212725000Y-83534250D02*
X212725000Y-81756250D01*
X181768908Y-24606276D02*
X183546908Y-24606276D01*
X192690908Y-24606276D02*
X194468908Y-24606276D01*
X194468908Y-24606276D02*
X194468908Y-26384276D01*
X194468908Y-35528276D02*
X194468908Y-37306276D01*
X194468908Y-37306276D02*
X192690908Y-37306276D01*
X183546908Y-37306276D02*
X181768908Y-37306276D01*
X181768908Y-37306276D02*
X181768908Y-35528276D01*
X181768908Y-26384276D02*
X181768908Y-24606276D01*
X124618750Y-81756250D02*
X126396750Y-81756250D01*
X135540750Y-81756250D02*
X137318750Y-81756250D01*
X137318750Y-81756250D02*
X137318750Y-83534250D01*
X137318750Y-92678250D02*
X137318750Y-94456250D01*
X137318750Y-94456250D02*
X135540750Y-94456250D01*
X126396750Y-94456250D02*
X124618750Y-94456250D01*
X124618750Y-94456250D02*
X124618750Y-92678250D01*
X124618750Y-83534250D02*
X124618750Y-81756250D01*
X162718750Y-81756250D02*
X164496750Y-81756250D01*
X173640750Y-81756250D02*
X175418750Y-81756250D01*
X175418750Y-81756250D02*
X175418750Y-83534250D01*
X175418750Y-92678250D02*
X175418750Y-94456250D01*
X175418750Y-94456250D02*
X173640750Y-94456250D01*
X164496750Y-94456250D02*
X162718750Y-94456250D01*
X162718750Y-94456250D02*
X162718750Y-92678250D01*
X162718750Y-83534250D02*
X162718750Y-81756250D01*
D12*
X162092821Y-72805774D02*
X162092821Y-71535774D01*
X162963678Y-72805774D02*
X162310535Y-72080060D01*
X162963678Y-71535774D02*
X162092821Y-72261488D01*
X163544250Y-71656726D02*
X163616821Y-71596250D01*
X163761964Y-71535774D01*
X164124821Y-71535774D01*
X164269964Y-71596250D01*
X164342535Y-71656726D01*
X164415107Y-71777679D01*
X164415107Y-71898631D01*
X164342535Y-72080060D01*
X163471678Y-72805774D01*
X164415107Y-72805774D01*
X165068250Y-72684821D02*
X165140822Y-72745298D01*
X165068250Y-72805774D01*
X164995679Y-72745298D01*
X165068250Y-72684821D01*
X165068250Y-72805774D01*
X165068250Y-72019583D02*
X165140822Y-72080060D01*
X165068250Y-72140536D01*
X164995679Y-72080060D01*
X165068250Y-72019583D01*
X165068250Y-72140536D01*
X166447107Y-71535774D02*
X166156821Y-71535774D01*
X166011678Y-71596250D01*
X165939107Y-71656726D01*
X165793964Y-71838155D01*
X165721393Y-72080060D01*
X165721393Y-72563869D01*
X165793964Y-72684821D01*
X165866536Y-72745298D01*
X166011678Y-72805774D01*
X166301964Y-72805774D01*
X166447107Y-72745298D01*
X166519678Y-72684821D01*
X166592250Y-72563869D01*
X166592250Y-72261488D01*
X166519678Y-72140536D01*
X166447107Y-72080060D01*
X166301964Y-72019583D01*
X166011678Y-72019583D01*
X165866536Y-72080060D01*
X165793964Y-72140536D01*
X165721393Y-72261488D01*
X181142821Y-72805774D02*
X181142821Y-71535774D01*
X182013678Y-72805774D02*
X181360535Y-72080060D01*
X182013678Y-71535774D02*
X181142821Y-72261488D01*
X182594250Y-71656726D02*
X182666821Y-71596250D01*
X182811964Y-71535774D01*
X183174821Y-71535774D01*
X183319964Y-71596250D01*
X183392535Y-71656726D01*
X183465107Y-71777679D01*
X183465107Y-71898631D01*
X183392535Y-72080060D01*
X182521678Y-72805774D01*
X183465107Y-72805774D01*
X184118250Y-72684821D02*
X184190822Y-72745298D01*
X184118250Y-72805774D01*
X184045679Y-72745298D01*
X184118250Y-72684821D01*
X184118250Y-72805774D01*
X184118250Y-72019583D02*
X184190822Y-72080060D01*
X184118250Y-72140536D01*
X184045679Y-72080060D01*
X184118250Y-72019583D01*
X184118250Y-72140536D01*
X184698821Y-71535774D02*
X185714821Y-71535774D01*
X185061678Y-72805774D01*
X244710857Y-34705774D02*
X244710857Y-33435774D01*
X245581714Y-34705774D02*
X244928571Y-33980060D01*
X245581714Y-33435774D02*
X244710857Y-34161488D01*
X246525143Y-33435774D02*
X246670286Y-33435774D01*
X246815429Y-33496250D01*
X246888000Y-33556726D01*
X246960571Y-33677679D01*
X247033143Y-33919583D01*
X247033143Y-34221964D01*
X246960571Y-34463869D01*
X246888000Y-34584821D01*
X246815429Y-34645298D01*
X246670286Y-34705774D01*
X246525143Y-34705774D01*
X246380000Y-34645298D01*
X246307429Y-34584821D01*
X246234857Y-34463869D01*
X246162286Y-34221964D01*
X246162286Y-33919583D01*
X246234857Y-33677679D01*
X246307429Y-33556726D01*
X246380000Y-33496250D01*
X246525143Y-33435774D01*
X247686286Y-34584821D02*
X247758858Y-34645298D01*
X247686286Y-34705774D01*
X247613715Y-34645298D01*
X247686286Y-34584821D01*
X247686286Y-34705774D01*
X247686286Y-33919583D02*
X247758858Y-33980060D01*
X247686286Y-34040536D01*
X247613715Y-33980060D01*
X247686286Y-33919583D01*
X247686286Y-34040536D01*
X249210286Y-34705774D02*
X248339429Y-34705774D01*
X248774857Y-34705774D02*
X248774857Y-33435774D01*
X248629714Y-33617202D01*
X248484572Y-33738155D01*
X248339429Y-33798631D01*
X250153715Y-33435774D02*
X250298858Y-33435774D01*
X250444001Y-33496250D01*
X250516572Y-33556726D01*
X250589143Y-33677679D01*
X250661715Y-33919583D01*
X250661715Y-34221964D01*
X250589143Y-34463869D01*
X250516572Y-34584821D01*
X250444001Y-34645298D01*
X250298858Y-34705774D01*
X250153715Y-34705774D01*
X250008572Y-34645298D01*
X249936001Y-34584821D01*
X249863429Y-34463869D01*
X249790858Y-34221964D01*
X249790858Y-33919583D01*
X249863429Y-33677679D01*
X249936001Y-33556726D01*
X250008572Y-33496250D01*
X250153715Y-33435774D01*
X52555321Y-34705774D02*
X52555321Y-33435774D01*
X53426178Y-34705774D02*
X52773035Y-33980060D01*
X53426178Y-33435774D02*
X52555321Y-34161488D01*
X54369607Y-33435774D02*
X54514750Y-33435774D01*
X54659893Y-33496250D01*
X54732464Y-33556726D01*
X54805035Y-33677679D01*
X54877607Y-33919583D01*
X54877607Y-34221964D01*
X54805035Y-34463869D01*
X54732464Y-34584821D01*
X54659893Y-34645298D01*
X54514750Y-34705774D01*
X54369607Y-34705774D01*
X54224464Y-34645298D01*
X54151893Y-34584821D01*
X54079321Y-34463869D01*
X54006750Y-34221964D01*
X54006750Y-33919583D01*
X54079321Y-33677679D01*
X54151893Y-33556726D01*
X54224464Y-33496250D01*
X54369607Y-33435774D01*
X55530750Y-34584821D02*
X55603322Y-34645298D01*
X55530750Y-34705774D01*
X55458179Y-34645298D01*
X55530750Y-34584821D01*
X55530750Y-34705774D01*
X55530750Y-33919583D02*
X55603322Y-33980060D01*
X55530750Y-34040536D01*
X55458179Y-33980060D01*
X55530750Y-33919583D01*
X55530750Y-34040536D01*
X56546750Y-33435774D02*
X56691893Y-33435774D01*
X56837036Y-33496250D01*
X56909607Y-33556726D01*
X56982178Y-33677679D01*
X57054750Y-33919583D01*
X57054750Y-34221964D01*
X56982178Y-34463869D01*
X56909607Y-34584821D01*
X56837036Y-34645298D01*
X56691893Y-34705774D01*
X56546750Y-34705774D01*
X56401607Y-34645298D01*
X56329036Y-34584821D01*
X56256464Y-34463869D01*
X56183893Y-34221964D01*
X56183893Y-33919583D01*
X56256464Y-33677679D01*
X56329036Y-33556726D01*
X56401607Y-33496250D01*
X56546750Y-33435774D01*
X71605321Y-34705774D02*
X71605321Y-33435774D01*
X72476178Y-34705774D02*
X71823035Y-33980060D01*
X72476178Y-33435774D02*
X71605321Y-34161488D01*
X73419607Y-33435774D02*
X73564750Y-33435774D01*
X73709893Y-33496250D01*
X73782464Y-33556726D01*
X73855035Y-33677679D01*
X73927607Y-33919583D01*
X73927607Y-34221964D01*
X73855035Y-34463869D01*
X73782464Y-34584821D01*
X73709893Y-34645298D01*
X73564750Y-34705774D01*
X73419607Y-34705774D01*
X73274464Y-34645298D01*
X73201893Y-34584821D01*
X73129321Y-34463869D01*
X73056750Y-34221964D01*
X73056750Y-33919583D01*
X73129321Y-33677679D01*
X73201893Y-33556726D01*
X73274464Y-33496250D01*
X73419607Y-33435774D01*
X74580750Y-34584821D02*
X74653322Y-34645298D01*
X74580750Y-34705774D01*
X74508179Y-34645298D01*
X74580750Y-34584821D01*
X74580750Y-34705774D01*
X74580750Y-33919583D02*
X74653322Y-33980060D01*
X74580750Y-34040536D01*
X74508179Y-33980060D01*
X74580750Y-33919583D01*
X74580750Y-34040536D01*
X76104750Y-34705774D02*
X75233893Y-34705774D01*
X75669321Y-34705774D02*
X75669321Y-33435774D01*
X75524178Y-33617202D01*
X75379036Y-33738155D01*
X75233893Y-33798631D01*
X90655321Y-34705774D02*
X90655321Y-33435774D01*
X91526178Y-34705774D02*
X90873035Y-33980060D01*
X91526178Y-33435774D02*
X90655321Y-34161488D01*
X92469607Y-33435774D02*
X92614750Y-33435774D01*
X92759893Y-33496250D01*
X92832464Y-33556726D01*
X92905035Y-33677679D01*
X92977607Y-33919583D01*
X92977607Y-34221964D01*
X92905035Y-34463869D01*
X92832464Y-34584821D01*
X92759893Y-34645298D01*
X92614750Y-34705774D01*
X92469607Y-34705774D01*
X92324464Y-34645298D01*
X92251893Y-34584821D01*
X92179321Y-34463869D01*
X92106750Y-34221964D01*
X92106750Y-33919583D01*
X92179321Y-33677679D01*
X92251893Y-33556726D01*
X92324464Y-33496250D01*
X92469607Y-33435774D01*
X93630750Y-34584821D02*
X93703322Y-34645298D01*
X93630750Y-34705774D01*
X93558179Y-34645298D01*
X93630750Y-34584821D01*
X93630750Y-34705774D01*
X93630750Y-33919583D02*
X93703322Y-33980060D01*
X93630750Y-34040536D01*
X93558179Y-33980060D01*
X93630750Y-33919583D01*
X93630750Y-34040536D01*
X94283893Y-33556726D02*
X94356464Y-33496250D01*
X94501607Y-33435774D01*
X94864464Y-33435774D01*
X95009607Y-33496250D01*
X95082178Y-33556726D01*
X95154750Y-33677679D01*
X95154750Y-33798631D01*
X95082178Y-33980060D01*
X94211321Y-34705774D01*
X95154750Y-34705774D01*
X109705321Y-34705774D02*
X109705321Y-33435774D01*
X110576178Y-34705774D02*
X109923035Y-33980060D01*
X110576178Y-33435774D02*
X109705321Y-34161488D01*
X111519607Y-33435774D02*
X111664750Y-33435774D01*
X111809893Y-33496250D01*
X111882464Y-33556726D01*
X111955035Y-33677679D01*
X112027607Y-33919583D01*
X112027607Y-34221964D01*
X111955035Y-34463869D01*
X111882464Y-34584821D01*
X111809893Y-34645298D01*
X111664750Y-34705774D01*
X111519607Y-34705774D01*
X111374464Y-34645298D01*
X111301893Y-34584821D01*
X111229321Y-34463869D01*
X111156750Y-34221964D01*
X111156750Y-33919583D01*
X111229321Y-33677679D01*
X111301893Y-33556726D01*
X111374464Y-33496250D01*
X111519607Y-33435774D01*
X112680750Y-34584821D02*
X112753322Y-34645298D01*
X112680750Y-34705774D01*
X112608179Y-34645298D01*
X112680750Y-34584821D01*
X112680750Y-34705774D01*
X112680750Y-33919583D02*
X112753322Y-33980060D01*
X112680750Y-34040536D01*
X112608179Y-33980060D01*
X112680750Y-33919583D01*
X112680750Y-34040536D01*
X113261321Y-33435774D02*
X114204750Y-33435774D01*
X113696750Y-33919583D01*
X113914464Y-33919583D01*
X114059607Y-33980060D01*
X114132178Y-34040536D01*
X114204750Y-34161488D01*
X114204750Y-34463869D01*
X114132178Y-34584821D01*
X114059607Y-34645298D01*
X113914464Y-34705774D01*
X113479036Y-34705774D01*
X113333893Y-34645298D01*
X113261321Y-34584821D01*
X128755321Y-34705774D02*
X128755321Y-33435774D01*
X129626178Y-34705774D02*
X128973035Y-33980060D01*
X129626178Y-33435774D02*
X128755321Y-34161488D01*
X130569607Y-33435774D02*
X130714750Y-33435774D01*
X130859893Y-33496250D01*
X130932464Y-33556726D01*
X131005035Y-33677679D01*
X131077607Y-33919583D01*
X131077607Y-34221964D01*
X131005035Y-34463869D01*
X130932464Y-34584821D01*
X130859893Y-34645298D01*
X130714750Y-34705774D01*
X130569607Y-34705774D01*
X130424464Y-34645298D01*
X130351893Y-34584821D01*
X130279321Y-34463869D01*
X130206750Y-34221964D01*
X130206750Y-33919583D01*
X130279321Y-33677679D01*
X130351893Y-33556726D01*
X130424464Y-33496250D01*
X130569607Y-33435774D01*
X131730750Y-34584821D02*
X131803322Y-34645298D01*
X131730750Y-34705774D01*
X131658179Y-34645298D01*
X131730750Y-34584821D01*
X131730750Y-34705774D01*
X131730750Y-33919583D02*
X131803322Y-33980060D01*
X131730750Y-34040536D01*
X131658179Y-33980060D01*
X131730750Y-33919583D01*
X131730750Y-34040536D01*
X133109607Y-33859107D02*
X133109607Y-34705774D01*
X132746750Y-33375298D02*
X132383893Y-34282440D01*
X133327321Y-34282440D01*
X147805321Y-34705774D02*
X147805321Y-33435774D01*
X148676178Y-34705774D02*
X148023035Y-33980060D01*
X148676178Y-33435774D02*
X147805321Y-34161488D01*
X149619607Y-33435774D02*
X149764750Y-33435774D01*
X149909893Y-33496250D01*
X149982464Y-33556726D01*
X150055035Y-33677679D01*
X150127607Y-33919583D01*
X150127607Y-34221964D01*
X150055035Y-34463869D01*
X149982464Y-34584821D01*
X149909893Y-34645298D01*
X149764750Y-34705774D01*
X149619607Y-34705774D01*
X149474464Y-34645298D01*
X149401893Y-34584821D01*
X149329321Y-34463869D01*
X149256750Y-34221964D01*
X149256750Y-33919583D01*
X149329321Y-33677679D01*
X149401893Y-33556726D01*
X149474464Y-33496250D01*
X149619607Y-33435774D01*
X150780750Y-34584821D02*
X150853322Y-34645298D01*
X150780750Y-34705774D01*
X150708179Y-34645298D01*
X150780750Y-34584821D01*
X150780750Y-34705774D01*
X150780750Y-33919583D02*
X150853322Y-33980060D01*
X150780750Y-34040536D01*
X150708179Y-33980060D01*
X150780750Y-33919583D01*
X150780750Y-34040536D01*
X152232178Y-33435774D02*
X151506464Y-33435774D01*
X151433893Y-34040536D01*
X151506464Y-33980060D01*
X151651607Y-33919583D01*
X152014464Y-33919583D01*
X152159607Y-33980060D01*
X152232178Y-34040536D01*
X152304750Y-34161488D01*
X152304750Y-34463869D01*
X152232178Y-34584821D01*
X152159607Y-34645298D01*
X152014464Y-34705774D01*
X151651607Y-34705774D01*
X151506464Y-34645298D01*
X151433893Y-34584821D01*
X166855321Y-34705774D02*
X166855321Y-33435774D01*
X167726178Y-34705774D02*
X167073035Y-33980060D01*
X167726178Y-33435774D02*
X166855321Y-34161488D01*
X168669607Y-33435774D02*
X168814750Y-33435774D01*
X168959893Y-33496250D01*
X169032464Y-33556726D01*
X169105035Y-33677679D01*
X169177607Y-33919583D01*
X169177607Y-34221964D01*
X169105035Y-34463869D01*
X169032464Y-34584821D01*
X168959893Y-34645298D01*
X168814750Y-34705774D01*
X168669607Y-34705774D01*
X168524464Y-34645298D01*
X168451893Y-34584821D01*
X168379321Y-34463869D01*
X168306750Y-34221964D01*
X168306750Y-33919583D01*
X168379321Y-33677679D01*
X168451893Y-33556726D01*
X168524464Y-33496250D01*
X168669607Y-33435774D01*
X169830750Y-34584821D02*
X169903322Y-34645298D01*
X169830750Y-34705774D01*
X169758179Y-34645298D01*
X169830750Y-34584821D01*
X169830750Y-34705774D01*
X169830750Y-33919583D02*
X169903322Y-33980060D01*
X169830750Y-34040536D01*
X169758179Y-33980060D01*
X169830750Y-33919583D01*
X169830750Y-34040536D01*
X171209607Y-33435774D02*
X170919321Y-33435774D01*
X170774178Y-33496250D01*
X170701607Y-33556726D01*
X170556464Y-33738155D01*
X170483893Y-33980060D01*
X170483893Y-34463869D01*
X170556464Y-34584821D01*
X170629036Y-34645298D01*
X170774178Y-34705774D01*
X171064464Y-34705774D01*
X171209607Y-34645298D01*
X171282178Y-34584821D01*
X171354750Y-34463869D01*
X171354750Y-34161488D01*
X171282178Y-34040536D01*
X171209607Y-33980060D01*
X171064464Y-33919583D01*
X170774178Y-33919583D01*
X170629036Y-33980060D01*
X170556464Y-34040536D01*
X170483893Y-34161488D01*
X204955321Y-34705774D02*
X204955321Y-33435774D01*
X205826178Y-34705774D02*
X205173035Y-33980060D01*
X205826178Y-33435774D02*
X204955321Y-34161488D01*
X206769607Y-33435774D02*
X206914750Y-33435774D01*
X207059893Y-33496250D01*
X207132464Y-33556726D01*
X207205035Y-33677679D01*
X207277607Y-33919583D01*
X207277607Y-34221964D01*
X207205035Y-34463869D01*
X207132464Y-34584821D01*
X207059893Y-34645298D01*
X206914750Y-34705774D01*
X206769607Y-34705774D01*
X206624464Y-34645298D01*
X206551893Y-34584821D01*
X206479321Y-34463869D01*
X206406750Y-34221964D01*
X206406750Y-33919583D01*
X206479321Y-33677679D01*
X206551893Y-33556726D01*
X206624464Y-33496250D01*
X206769607Y-33435774D01*
X207930750Y-34584821D02*
X208003322Y-34645298D01*
X207930750Y-34705774D01*
X207858179Y-34645298D01*
X207930750Y-34584821D01*
X207930750Y-34705774D01*
X207930750Y-33919583D02*
X208003322Y-33980060D01*
X207930750Y-34040536D01*
X207858179Y-33980060D01*
X207930750Y-33919583D01*
X207930750Y-34040536D01*
X208874178Y-33980060D02*
X208729036Y-33919583D01*
X208656464Y-33859107D01*
X208583893Y-33738155D01*
X208583893Y-33677679D01*
X208656464Y-33556726D01*
X208729036Y-33496250D01*
X208874178Y-33435774D01*
X209164464Y-33435774D01*
X209309607Y-33496250D01*
X209382178Y-33556726D01*
X209454750Y-33677679D01*
X209454750Y-33738155D01*
X209382178Y-33859107D01*
X209309607Y-33919583D01*
X209164464Y-33980060D01*
X208874178Y-33980060D01*
X208729036Y-34040536D01*
X208656464Y-34101012D01*
X208583893Y-34221964D01*
X208583893Y-34463869D01*
X208656464Y-34584821D01*
X208729036Y-34645298D01*
X208874178Y-34705774D01*
X209164464Y-34705774D01*
X209309607Y-34645298D01*
X209382178Y-34584821D01*
X209454750Y-34463869D01*
X209454750Y-34221964D01*
X209382178Y-34101012D01*
X209309607Y-34040536D01*
X209164464Y-33980060D01*
X224005321Y-34705774D02*
X224005321Y-33435774D01*
X224876178Y-34705774D02*
X224223035Y-33980060D01*
X224876178Y-33435774D02*
X224005321Y-34161488D01*
X225819607Y-33435774D02*
X225964750Y-33435774D01*
X226109893Y-33496250D01*
X226182464Y-33556726D01*
X226255035Y-33677679D01*
X226327607Y-33919583D01*
X226327607Y-34221964D01*
X226255035Y-34463869D01*
X226182464Y-34584821D01*
X226109893Y-34645298D01*
X225964750Y-34705774D01*
X225819607Y-34705774D01*
X225674464Y-34645298D01*
X225601893Y-34584821D01*
X225529321Y-34463869D01*
X225456750Y-34221964D01*
X225456750Y-33919583D01*
X225529321Y-33677679D01*
X225601893Y-33556726D01*
X225674464Y-33496250D01*
X225819607Y-33435774D01*
X226980750Y-34584821D02*
X227053322Y-34645298D01*
X226980750Y-34705774D01*
X226908179Y-34645298D01*
X226980750Y-34584821D01*
X226980750Y-34705774D01*
X226980750Y-33919583D02*
X227053322Y-33980060D01*
X226980750Y-34040536D01*
X226908179Y-33980060D01*
X226980750Y-33919583D01*
X226980750Y-34040536D01*
X227779036Y-34705774D02*
X228069321Y-34705774D01*
X228214464Y-34645298D01*
X228287036Y-34584821D01*
X228432178Y-34403393D01*
X228504750Y-34161488D01*
X228504750Y-33677679D01*
X228432178Y-33556726D01*
X228359607Y-33496250D01*
X228214464Y-33435774D01*
X227924178Y-33435774D01*
X227779036Y-33496250D01*
X227706464Y-33556726D01*
X227633893Y-33677679D01*
X227633893Y-33980060D01*
X227706464Y-34101012D01*
X227779036Y-34161488D01*
X227924178Y-34221964D01*
X228214464Y-34221964D01*
X228359607Y-34161488D01*
X228432178Y-34101012D01*
X228504750Y-33980060D01*
X57317821Y-53755774D02*
X57317821Y-52485774D01*
X58188678Y-53755774D02*
X57535535Y-53030060D01*
X58188678Y-52485774D02*
X57317821Y-53211488D01*
X59640107Y-53755774D02*
X58769250Y-53755774D01*
X59204678Y-53755774D02*
X59204678Y-52485774D01*
X59059535Y-52667202D01*
X58914393Y-52788155D01*
X58769250Y-52848631D01*
X60293250Y-53634821D02*
X60365822Y-53695298D01*
X60293250Y-53755774D01*
X60220679Y-53695298D01*
X60293250Y-53634821D01*
X60293250Y-53755774D01*
X60293250Y-52969583D02*
X60365822Y-53030060D01*
X60293250Y-53090536D01*
X60220679Y-53030060D01*
X60293250Y-52969583D01*
X60293250Y-53090536D01*
X61309250Y-52485774D02*
X61454393Y-52485774D01*
X61599536Y-52546250D01*
X61672107Y-52606726D01*
X61744678Y-52727679D01*
X61817250Y-52969583D01*
X61817250Y-53271964D01*
X61744678Y-53513869D01*
X61672107Y-53634821D01*
X61599536Y-53695298D01*
X61454393Y-53755774D01*
X61309250Y-53755774D01*
X61164107Y-53695298D01*
X61091536Y-53634821D01*
X61018964Y-53513869D01*
X60946393Y-53271964D01*
X60946393Y-52969583D01*
X61018964Y-52727679D01*
X61091536Y-52606726D01*
X61164107Y-52546250D01*
X61309250Y-52485774D01*
X76367821Y-53755774D02*
X76367821Y-52485774D01*
X77238678Y-53755774D02*
X76585535Y-53030060D01*
X77238678Y-52485774D02*
X76367821Y-53211488D01*
X78690107Y-53755774D02*
X77819250Y-53755774D01*
X78254678Y-53755774D02*
X78254678Y-52485774D01*
X78109535Y-52667202D01*
X77964393Y-52788155D01*
X77819250Y-52848631D01*
X79343250Y-53634821D02*
X79415822Y-53695298D01*
X79343250Y-53755774D01*
X79270679Y-53695298D01*
X79343250Y-53634821D01*
X79343250Y-53755774D01*
X79343250Y-52969583D02*
X79415822Y-53030060D01*
X79343250Y-53090536D01*
X79270679Y-53030060D01*
X79343250Y-52969583D01*
X79343250Y-53090536D01*
X80867250Y-53755774D02*
X79996393Y-53755774D01*
X80431821Y-53755774D02*
X80431821Y-52485774D01*
X80286678Y-52667202D01*
X80141536Y-52788155D01*
X79996393Y-52848631D01*
X95417821Y-53755774D02*
X95417821Y-52485774D01*
X96288678Y-53755774D02*
X95635535Y-53030060D01*
X96288678Y-52485774D02*
X95417821Y-53211488D01*
X97740107Y-53755774D02*
X96869250Y-53755774D01*
X97304678Y-53755774D02*
X97304678Y-52485774D01*
X97159535Y-52667202D01*
X97014393Y-52788155D01*
X96869250Y-52848631D01*
X98393250Y-53634821D02*
X98465822Y-53695298D01*
X98393250Y-53755774D01*
X98320679Y-53695298D01*
X98393250Y-53634821D01*
X98393250Y-53755774D01*
X98393250Y-52969583D02*
X98465822Y-53030060D01*
X98393250Y-53090536D01*
X98320679Y-53030060D01*
X98393250Y-52969583D01*
X98393250Y-53090536D01*
X99046393Y-52606726D02*
X99118964Y-52546250D01*
X99264107Y-52485774D01*
X99626964Y-52485774D01*
X99772107Y-52546250D01*
X99844678Y-52606726D01*
X99917250Y-52727679D01*
X99917250Y-52848631D01*
X99844678Y-53030060D01*
X98973821Y-53755774D01*
X99917250Y-53755774D01*
X114467821Y-53755774D02*
X114467821Y-52485774D01*
X115338678Y-53755774D02*
X114685535Y-53030060D01*
X115338678Y-52485774D02*
X114467821Y-53211488D01*
X116790107Y-53755774D02*
X115919250Y-53755774D01*
X116354678Y-53755774D02*
X116354678Y-52485774D01*
X116209535Y-52667202D01*
X116064393Y-52788155D01*
X115919250Y-52848631D01*
X117443250Y-53634821D02*
X117515822Y-53695298D01*
X117443250Y-53755774D01*
X117370679Y-53695298D01*
X117443250Y-53634821D01*
X117443250Y-53755774D01*
X117443250Y-52969583D02*
X117515822Y-53030060D01*
X117443250Y-53090536D01*
X117370679Y-53030060D01*
X117443250Y-52969583D01*
X117443250Y-53090536D01*
X118023821Y-52485774D02*
X118967250Y-52485774D01*
X118459250Y-52969583D01*
X118676964Y-52969583D01*
X118822107Y-53030060D01*
X118894678Y-53090536D01*
X118967250Y-53211488D01*
X118967250Y-53513869D01*
X118894678Y-53634821D01*
X118822107Y-53695298D01*
X118676964Y-53755774D01*
X118241536Y-53755774D01*
X118096393Y-53695298D01*
X118023821Y-53634821D01*
X133517821Y-53755774D02*
X133517821Y-52485774D01*
X134388678Y-53755774D02*
X133735535Y-53030060D01*
X134388678Y-52485774D02*
X133517821Y-53211488D01*
X135840107Y-53755774D02*
X134969250Y-53755774D01*
X135404678Y-53755774D02*
X135404678Y-52485774D01*
X135259535Y-52667202D01*
X135114393Y-52788155D01*
X134969250Y-52848631D01*
X136493250Y-53634821D02*
X136565822Y-53695298D01*
X136493250Y-53755774D01*
X136420679Y-53695298D01*
X136493250Y-53634821D01*
X136493250Y-53755774D01*
X136493250Y-52969583D02*
X136565822Y-53030060D01*
X136493250Y-53090536D01*
X136420679Y-53030060D01*
X136493250Y-52969583D01*
X136493250Y-53090536D01*
X137872107Y-52909107D02*
X137872107Y-53755774D01*
X137509250Y-52425298D02*
X137146393Y-53332440D01*
X138089821Y-53332440D01*
X152567821Y-53755774D02*
X152567821Y-52485774D01*
X153438678Y-53755774D02*
X152785535Y-53030060D01*
X153438678Y-52485774D02*
X152567821Y-53211488D01*
X154890107Y-53755774D02*
X154019250Y-53755774D01*
X154454678Y-53755774D02*
X154454678Y-52485774D01*
X154309535Y-52667202D01*
X154164393Y-52788155D01*
X154019250Y-52848631D01*
X155543250Y-53634821D02*
X155615822Y-53695298D01*
X155543250Y-53755774D01*
X155470679Y-53695298D01*
X155543250Y-53634821D01*
X155543250Y-53755774D01*
X155543250Y-52969583D02*
X155615822Y-53030060D01*
X155543250Y-53090536D01*
X155470679Y-53030060D01*
X155543250Y-52969583D01*
X155543250Y-53090536D01*
X156994678Y-52485774D02*
X156268964Y-52485774D01*
X156196393Y-53090536D01*
X156268964Y-53030060D01*
X156414107Y-52969583D01*
X156776964Y-52969583D01*
X156922107Y-53030060D01*
X156994678Y-53090536D01*
X157067250Y-53211488D01*
X157067250Y-53513869D01*
X156994678Y-53634821D01*
X156922107Y-53695298D01*
X156776964Y-53755774D01*
X156414107Y-53755774D01*
X156268964Y-53695298D01*
X156196393Y-53634821D01*
X171617821Y-53755774D02*
X171617821Y-52485774D01*
X172488678Y-53755774D02*
X171835535Y-53030060D01*
X172488678Y-52485774D02*
X171617821Y-53211488D01*
X173940107Y-53755774D02*
X173069250Y-53755774D01*
X173504678Y-53755774D02*
X173504678Y-52485774D01*
X173359535Y-52667202D01*
X173214393Y-52788155D01*
X173069250Y-52848631D01*
X174593250Y-53634821D02*
X174665822Y-53695298D01*
X174593250Y-53755774D01*
X174520679Y-53695298D01*
X174593250Y-53634821D01*
X174593250Y-53755774D01*
X174593250Y-52969583D02*
X174665822Y-53030060D01*
X174593250Y-53090536D01*
X174520679Y-53030060D01*
X174593250Y-52969583D01*
X174593250Y-53090536D01*
X175972107Y-52485774D02*
X175681821Y-52485774D01*
X175536678Y-52546250D01*
X175464107Y-52606726D01*
X175318964Y-52788155D01*
X175246393Y-53030060D01*
X175246393Y-53513869D01*
X175318964Y-53634821D01*
X175391536Y-53695298D01*
X175536678Y-53755774D01*
X175826964Y-53755774D01*
X175972107Y-53695298D01*
X176044678Y-53634821D01*
X176117250Y-53513869D01*
X176117250Y-53211488D01*
X176044678Y-53090536D01*
X175972107Y-53030060D01*
X175826964Y-52969583D01*
X175536678Y-52969583D01*
X175391536Y-53030060D01*
X175318964Y-53090536D01*
X175246393Y-53211488D01*
X190667821Y-53755774D02*
X190667821Y-52485774D01*
X191538678Y-53755774D02*
X190885535Y-53030060D01*
X191538678Y-52485774D02*
X190667821Y-53211488D01*
X192990107Y-53755774D02*
X192119250Y-53755774D01*
X192554678Y-53755774D02*
X192554678Y-52485774D01*
X192409535Y-52667202D01*
X192264393Y-52788155D01*
X192119250Y-52848631D01*
X193643250Y-53634821D02*
X193715822Y-53695298D01*
X193643250Y-53755774D01*
X193570679Y-53695298D01*
X193643250Y-53634821D01*
X193643250Y-53755774D01*
X193643250Y-52969583D02*
X193715822Y-53030060D01*
X193643250Y-53090536D01*
X193570679Y-53030060D01*
X193643250Y-52969583D01*
X193643250Y-53090536D01*
X194223821Y-52485774D02*
X195239821Y-52485774D01*
X194586678Y-53755774D01*
X209717821Y-53755774D02*
X209717821Y-52485774D01*
X210588678Y-53755774D02*
X209935535Y-53030060D01*
X210588678Y-52485774D02*
X209717821Y-53211488D01*
X212040107Y-53755774D02*
X211169250Y-53755774D01*
X211604678Y-53755774D02*
X211604678Y-52485774D01*
X211459535Y-52667202D01*
X211314393Y-52788155D01*
X211169250Y-52848631D01*
X212693250Y-53634821D02*
X212765822Y-53695298D01*
X212693250Y-53755774D01*
X212620679Y-53695298D01*
X212693250Y-53634821D01*
X212693250Y-53755774D01*
X212693250Y-52969583D02*
X212765822Y-53030060D01*
X212693250Y-53090536D01*
X212620679Y-53030060D01*
X212693250Y-52969583D01*
X212693250Y-53090536D01*
X213636678Y-53030060D02*
X213491536Y-52969583D01*
X213418964Y-52909107D01*
X213346393Y-52788155D01*
X213346393Y-52727679D01*
X213418964Y-52606726D01*
X213491536Y-52546250D01*
X213636678Y-52485774D01*
X213926964Y-52485774D01*
X214072107Y-52546250D01*
X214144678Y-52606726D01*
X214217250Y-52727679D01*
X214217250Y-52788155D01*
X214144678Y-52909107D01*
X214072107Y-52969583D01*
X213926964Y-53030060D01*
X213636678Y-53030060D01*
X213491536Y-53090536D01*
X213418964Y-53151012D01*
X213346393Y-53271964D01*
X213346393Y-53513869D01*
X213418964Y-53634821D01*
X213491536Y-53695298D01*
X213636678Y-53755774D01*
X213926964Y-53755774D01*
X214072107Y-53695298D01*
X214144678Y-53634821D01*
X214217250Y-53513869D01*
X214217250Y-53271964D01*
X214144678Y-53151012D01*
X214072107Y-53090536D01*
X213926964Y-53030060D01*
X228767821Y-53755774D02*
X228767821Y-52485774D01*
X229638678Y-53755774D02*
X228985535Y-53030060D01*
X229638678Y-52485774D02*
X228767821Y-53211488D01*
X231090107Y-53755774D02*
X230219250Y-53755774D01*
X230654678Y-53755774D02*
X230654678Y-52485774D01*
X230509535Y-52667202D01*
X230364393Y-52788155D01*
X230219250Y-52848631D01*
X231743250Y-53634821D02*
X231815822Y-53695298D01*
X231743250Y-53755774D01*
X231670679Y-53695298D01*
X231743250Y-53634821D01*
X231743250Y-53755774D01*
X231743250Y-52969583D02*
X231815822Y-53030060D01*
X231743250Y-53090536D01*
X231670679Y-53030060D01*
X231743250Y-52969583D01*
X231743250Y-53090536D01*
X232541536Y-53755774D02*
X232831821Y-53755774D01*
X232976964Y-53695298D01*
X233049536Y-53634821D01*
X233194678Y-53453393D01*
X233267250Y-53211488D01*
X233267250Y-52727679D01*
X233194678Y-52606726D01*
X233122107Y-52546250D01*
X232976964Y-52485774D01*
X232686678Y-52485774D01*
X232541536Y-52546250D01*
X232468964Y-52606726D01*
X232396393Y-52727679D01*
X232396393Y-53030060D01*
X232468964Y-53151012D01*
X232541536Y-53211488D01*
X232686678Y-53271964D01*
X232976964Y-53271964D01*
X233122107Y-53211488D01*
X233194678Y-53151012D01*
X233267250Y-53030060D01*
X247092107Y-53755774D02*
X247092107Y-52485774D01*
X247962964Y-53755774D02*
X247309821Y-53030060D01*
X247962964Y-52485774D02*
X247092107Y-53211488D01*
X249414393Y-53755774D02*
X248543536Y-53755774D01*
X248978964Y-53755774D02*
X248978964Y-52485774D01*
X248833821Y-52667202D01*
X248688679Y-52788155D01*
X248543536Y-52848631D01*
X250067536Y-53634821D02*
X250140108Y-53695298D01*
X250067536Y-53755774D01*
X249994965Y-53695298D01*
X250067536Y-53634821D01*
X250067536Y-53755774D01*
X250067536Y-52969583D02*
X250140108Y-53030060D01*
X250067536Y-53090536D01*
X249994965Y-53030060D01*
X250067536Y-52969583D01*
X250067536Y-53090536D01*
X251591536Y-53755774D02*
X250720679Y-53755774D01*
X251156107Y-53755774D02*
X251156107Y-52485774D01*
X251010964Y-52667202D01*
X250865822Y-52788155D01*
X250720679Y-52848631D01*
X252534965Y-52485774D02*
X252680108Y-52485774D01*
X252825251Y-52546250D01*
X252897822Y-52606726D01*
X252970393Y-52727679D01*
X253042965Y-52969583D01*
X253042965Y-53271964D01*
X252970393Y-53513869D01*
X252897822Y-53634821D01*
X252825251Y-53695298D01*
X252680108Y-53755774D01*
X252534965Y-53755774D01*
X252389822Y-53695298D01*
X252317251Y-53634821D01*
X252244679Y-53513869D01*
X252172108Y-53271964D01*
X252172108Y-52969583D01*
X252244679Y-52727679D01*
X252317251Y-52606726D01*
X252389822Y-52546250D01*
X252534965Y-52485774D01*
X43030321Y-72805774D02*
X43030321Y-71535774D01*
X43901178Y-72805774D02*
X43248035Y-72080060D01*
X43901178Y-71535774D02*
X43030321Y-72261488D01*
X44481750Y-71656726D02*
X44554321Y-71596250D01*
X44699464Y-71535774D01*
X45062321Y-71535774D01*
X45207464Y-71596250D01*
X45280035Y-71656726D01*
X45352607Y-71777679D01*
X45352607Y-71898631D01*
X45280035Y-72080060D01*
X44409178Y-72805774D01*
X45352607Y-72805774D01*
X46005750Y-72684821D02*
X46078322Y-72745298D01*
X46005750Y-72805774D01*
X45933179Y-72745298D01*
X46005750Y-72684821D01*
X46005750Y-72805774D01*
X46005750Y-72019583D02*
X46078322Y-72080060D01*
X46005750Y-72140536D01*
X45933179Y-72080060D01*
X46005750Y-72019583D01*
X46005750Y-72140536D01*
X47021750Y-71535774D02*
X47166893Y-71535774D01*
X47312036Y-71596250D01*
X47384607Y-71656726D01*
X47457178Y-71777679D01*
X47529750Y-72019583D01*
X47529750Y-72321964D01*
X47457178Y-72563869D01*
X47384607Y-72684821D01*
X47312036Y-72745298D01*
X47166893Y-72805774D01*
X47021750Y-72805774D01*
X46876607Y-72745298D01*
X46804036Y-72684821D01*
X46731464Y-72563869D01*
X46658893Y-72321964D01*
X46658893Y-72019583D01*
X46731464Y-71777679D01*
X46804036Y-71656726D01*
X46876607Y-71596250D01*
X47021750Y-71535774D01*
X66842879Y-72805832D02*
X66842879Y-71535832D01*
X67713736Y-72805832D02*
X67060593Y-72080118D01*
X67713736Y-71535832D02*
X66842879Y-72261546D01*
X68294308Y-71656784D02*
X68366879Y-71596308D01*
X68512022Y-71535832D01*
X68874879Y-71535832D01*
X69020022Y-71596308D01*
X69092593Y-71656784D01*
X69165165Y-71777737D01*
X69165165Y-71898689D01*
X69092593Y-72080118D01*
X68221736Y-72805832D01*
X69165165Y-72805832D01*
X69818308Y-72684879D02*
X69890880Y-72745356D01*
X69818308Y-72805832D01*
X69745737Y-72745356D01*
X69818308Y-72684879D01*
X69818308Y-72805832D01*
X69818308Y-72019641D02*
X69890880Y-72080118D01*
X69818308Y-72140594D01*
X69745737Y-72080118D01*
X69818308Y-72019641D01*
X69818308Y-72140594D01*
X71342308Y-72805832D02*
X70471451Y-72805832D01*
X70906879Y-72805832D02*
X70906879Y-71535832D01*
X70761736Y-71717260D01*
X70616594Y-71838213D01*
X70471451Y-71898689D01*
X85892895Y-72805832D02*
X85892895Y-71535832D01*
X86763752Y-72805832D02*
X86110609Y-72080118D01*
X86763752Y-71535832D02*
X85892895Y-72261546D01*
X87344324Y-71656784D02*
X87416895Y-71596308D01*
X87562038Y-71535832D01*
X87924895Y-71535832D01*
X88070038Y-71596308D01*
X88142609Y-71656784D01*
X88215181Y-71777737D01*
X88215181Y-71898689D01*
X88142609Y-72080118D01*
X87271752Y-72805832D01*
X88215181Y-72805832D01*
X88868324Y-72684879D02*
X88940896Y-72745356D01*
X88868324Y-72805832D01*
X88795753Y-72745356D01*
X88868324Y-72684879D01*
X88868324Y-72805832D01*
X88868324Y-72019641D02*
X88940896Y-72080118D01*
X88868324Y-72140594D01*
X88795753Y-72080118D01*
X88868324Y-72019641D01*
X88868324Y-72140594D01*
X89521467Y-71656784D02*
X89594038Y-71596308D01*
X89739181Y-71535832D01*
X90102038Y-71535832D01*
X90247181Y-71596308D01*
X90319752Y-71656784D01*
X90392324Y-71777737D01*
X90392324Y-71898689D01*
X90319752Y-72080118D01*
X89448895Y-72805832D01*
X90392324Y-72805832D01*
X104942821Y-72805774D02*
X104942821Y-71535774D01*
X105813678Y-72805774D02*
X105160535Y-72080060D01*
X105813678Y-71535774D02*
X104942821Y-72261488D01*
X106394250Y-71656726D02*
X106466821Y-71596250D01*
X106611964Y-71535774D01*
X106974821Y-71535774D01*
X107119964Y-71596250D01*
X107192535Y-71656726D01*
X107265107Y-71777679D01*
X107265107Y-71898631D01*
X107192535Y-72080060D01*
X106321678Y-72805774D01*
X107265107Y-72805774D01*
X107918250Y-72684821D02*
X107990822Y-72745298D01*
X107918250Y-72805774D01*
X107845679Y-72745298D01*
X107918250Y-72684821D01*
X107918250Y-72805774D01*
X107918250Y-72019583D02*
X107990822Y-72080060D01*
X107918250Y-72140536D01*
X107845679Y-72080060D01*
X107918250Y-72019583D01*
X107918250Y-72140536D01*
X108498821Y-71535774D02*
X109442250Y-71535774D01*
X108934250Y-72019583D01*
X109151964Y-72019583D01*
X109297107Y-72080060D01*
X109369678Y-72140536D01*
X109442250Y-72261488D01*
X109442250Y-72563869D01*
X109369678Y-72684821D01*
X109297107Y-72745298D01*
X109151964Y-72805774D01*
X108716536Y-72805774D01*
X108571393Y-72745298D01*
X108498821Y-72684821D01*
X123992821Y-72805774D02*
X123992821Y-71535774D01*
X124863678Y-72805774D02*
X124210535Y-72080060D01*
X124863678Y-71535774D02*
X123992821Y-72261488D01*
X125444250Y-71656726D02*
X125516821Y-71596250D01*
X125661964Y-71535774D01*
X126024821Y-71535774D01*
X126169964Y-71596250D01*
X126242535Y-71656726D01*
X126315107Y-71777679D01*
X126315107Y-71898631D01*
X126242535Y-72080060D01*
X125371678Y-72805774D01*
X126315107Y-72805774D01*
X126968250Y-72684821D02*
X127040822Y-72745298D01*
X126968250Y-72805774D01*
X126895679Y-72745298D01*
X126968250Y-72684821D01*
X126968250Y-72805774D01*
X126968250Y-72019583D02*
X127040822Y-72080060D01*
X126968250Y-72140536D01*
X126895679Y-72080060D01*
X126968250Y-72019583D01*
X126968250Y-72140536D01*
X128347107Y-71959107D02*
X128347107Y-72805774D01*
X127984250Y-71475298D02*
X127621393Y-72382440D01*
X128564821Y-72382440D01*
X143042821Y-72805774D02*
X143042821Y-71535774D01*
X143913678Y-72805774D02*
X143260535Y-72080060D01*
X143913678Y-71535774D02*
X143042821Y-72261488D01*
X144494250Y-71656726D02*
X144566821Y-71596250D01*
X144711964Y-71535774D01*
X145074821Y-71535774D01*
X145219964Y-71596250D01*
X145292535Y-71656726D01*
X145365107Y-71777679D01*
X145365107Y-71898631D01*
X145292535Y-72080060D01*
X144421678Y-72805774D01*
X145365107Y-72805774D01*
X146018250Y-72684821D02*
X146090822Y-72745298D01*
X146018250Y-72805774D01*
X145945679Y-72745298D01*
X146018250Y-72684821D01*
X146018250Y-72805774D01*
X146018250Y-72019583D02*
X146090822Y-72080060D01*
X146018250Y-72140536D01*
X145945679Y-72080060D01*
X146018250Y-72019583D01*
X146018250Y-72140536D01*
X147469678Y-71535774D02*
X146743964Y-71535774D01*
X146671393Y-72140536D01*
X146743964Y-72080060D01*
X146889107Y-72019583D01*
X147251964Y-72019583D01*
X147397107Y-72080060D01*
X147469678Y-72140536D01*
X147542250Y-72261488D01*
X147542250Y-72563869D01*
X147469678Y-72684821D01*
X147397107Y-72745298D01*
X147251964Y-72805774D01*
X146889107Y-72805774D01*
X146743964Y-72745298D01*
X146671393Y-72684821D01*
X200192821Y-72805774D02*
X200192821Y-71535774D01*
X201063678Y-72805774D02*
X200410535Y-72080060D01*
X201063678Y-71535774D02*
X200192821Y-72261488D01*
X201644250Y-71656726D02*
X201716821Y-71596250D01*
X201861964Y-71535774D01*
X202224821Y-71535774D01*
X202369964Y-71596250D01*
X202442535Y-71656726D01*
X202515107Y-71777679D01*
X202515107Y-71898631D01*
X202442535Y-72080060D01*
X201571678Y-72805774D01*
X202515107Y-72805774D01*
X203168250Y-72684821D02*
X203240822Y-72745298D01*
X203168250Y-72805774D01*
X203095679Y-72745298D01*
X203168250Y-72684821D01*
X203168250Y-72805774D01*
X203168250Y-72019583D02*
X203240822Y-72080060D01*
X203168250Y-72140536D01*
X203095679Y-72080060D01*
X203168250Y-72019583D01*
X203168250Y-72140536D01*
X204111678Y-72080060D02*
X203966536Y-72019583D01*
X203893964Y-71959107D01*
X203821393Y-71838155D01*
X203821393Y-71777679D01*
X203893964Y-71656726D01*
X203966536Y-71596250D01*
X204111678Y-71535774D01*
X204401964Y-71535774D01*
X204547107Y-71596250D01*
X204619678Y-71656726D01*
X204692250Y-71777679D01*
X204692250Y-71838155D01*
X204619678Y-71959107D01*
X204547107Y-72019583D01*
X204401964Y-72080060D01*
X204111678Y-72080060D01*
X203966536Y-72140536D01*
X203893964Y-72201012D01*
X203821393Y-72321964D01*
X203821393Y-72563869D01*
X203893964Y-72684821D01*
X203966536Y-72745298D01*
X204111678Y-72805774D01*
X204401964Y-72805774D01*
X204547107Y-72745298D01*
X204619678Y-72684821D01*
X204692250Y-72563869D01*
X204692250Y-72321964D01*
X204619678Y-72201012D01*
X204547107Y-72140536D01*
X204401964Y-72080060D01*
X219242821Y-72805774D02*
X219242821Y-71535774D01*
X220113678Y-72805774D02*
X219460535Y-72080060D01*
X220113678Y-71535774D02*
X219242821Y-72261488D01*
X220694250Y-71656726D02*
X220766821Y-71596250D01*
X220911964Y-71535774D01*
X221274821Y-71535774D01*
X221419964Y-71596250D01*
X221492535Y-71656726D01*
X221565107Y-71777679D01*
X221565107Y-71898631D01*
X221492535Y-72080060D01*
X220621678Y-72805774D01*
X221565107Y-72805774D01*
X222218250Y-72684821D02*
X222290822Y-72745298D01*
X222218250Y-72805774D01*
X222145679Y-72745298D01*
X222218250Y-72684821D01*
X222218250Y-72805774D01*
X222218250Y-72019583D02*
X222290822Y-72080060D01*
X222218250Y-72140536D01*
X222145679Y-72080060D01*
X222218250Y-72019583D01*
X222218250Y-72140536D01*
X223016536Y-72805774D02*
X223306821Y-72805774D01*
X223451964Y-72745298D01*
X223524536Y-72684821D01*
X223669678Y-72503393D01*
X223742250Y-72261488D01*
X223742250Y-71777679D01*
X223669678Y-71656726D01*
X223597107Y-71596250D01*
X223451964Y-71535774D01*
X223161678Y-71535774D01*
X223016536Y-71596250D01*
X222943964Y-71656726D01*
X222871393Y-71777679D01*
X222871393Y-72080060D01*
X222943964Y-72201012D01*
X223016536Y-72261488D01*
X223161678Y-72321964D01*
X223451964Y-72321964D01*
X223597107Y-72261488D01*
X223669678Y-72201012D01*
X223742250Y-72080060D01*
X239948357Y-72805774D02*
X239948357Y-71535774D01*
X240819214Y-72805774D02*
X240166071Y-72080060D01*
X240819214Y-71535774D02*
X239948357Y-72261488D01*
X241399786Y-71656726D02*
X241472357Y-71596250D01*
X241617500Y-71535774D01*
X241980357Y-71535774D01*
X242125500Y-71596250D01*
X242198071Y-71656726D01*
X242270643Y-71777679D01*
X242270643Y-71898631D01*
X242198071Y-72080060D01*
X241327214Y-72805774D01*
X242270643Y-72805774D01*
X242923786Y-72684821D02*
X242996358Y-72745298D01*
X242923786Y-72805774D01*
X242851215Y-72745298D01*
X242923786Y-72684821D01*
X242923786Y-72805774D01*
X242923786Y-72019583D02*
X242996358Y-72080060D01*
X242923786Y-72140536D01*
X242851215Y-72080060D01*
X242923786Y-72019583D01*
X242923786Y-72140536D01*
X244447786Y-72805774D02*
X243576929Y-72805774D01*
X244012357Y-72805774D02*
X244012357Y-71535774D01*
X243867214Y-71717202D01*
X243722072Y-71838155D01*
X243576929Y-71898631D01*
X245391215Y-71535774D02*
X245536358Y-71535774D01*
X245681501Y-71596250D01*
X245754072Y-71656726D01*
X245826643Y-71777679D01*
X245899215Y-72019583D01*
X245899215Y-72321964D01*
X245826643Y-72563869D01*
X245754072Y-72684821D01*
X245681501Y-72745298D01*
X245536358Y-72805774D01*
X245391215Y-72805774D01*
X245246072Y-72745298D01*
X245173501Y-72684821D01*
X245100929Y-72563869D01*
X245028358Y-72321964D01*
X245028358Y-72019583D01*
X245100929Y-71777679D01*
X245173501Y-71656726D01*
X245246072Y-71596250D01*
X245391215Y-71535774D01*
X35886571Y-53755774D02*
X35886571Y-52485774D01*
X36757428Y-53755774D02*
X36104285Y-53030060D01*
X36757428Y-52485774D02*
X35886571Y-53211488D01*
X37265428Y-52485774D02*
X38208857Y-52485774D01*
X37700857Y-52969583D01*
X37918571Y-52969583D01*
X38063714Y-53030060D01*
X38136285Y-53090536D01*
X38208857Y-53211488D01*
X38208857Y-53513869D01*
X38136285Y-53634821D01*
X38063714Y-53695298D01*
X37918571Y-53755774D01*
X37483143Y-53755774D01*
X37338000Y-53695298D01*
X37265428Y-53634821D01*
X38862000Y-53634821D02*
X38934572Y-53695298D01*
X38862000Y-53755774D01*
X38789429Y-53695298D01*
X38862000Y-53634821D01*
X38862000Y-53755774D01*
X38862000Y-52969583D02*
X38934572Y-53030060D01*
X38862000Y-53090536D01*
X38789429Y-53030060D01*
X38862000Y-52969583D01*
X38862000Y-53090536D01*
X39878000Y-52485774D02*
X40023143Y-52485774D01*
X40168286Y-52546250D01*
X40240857Y-52606726D01*
X40313428Y-52727679D01*
X40386000Y-52969583D01*
X40386000Y-53271964D01*
X40313428Y-53513869D01*
X40240857Y-53634821D01*
X40168286Y-53695298D01*
X40023143Y-53755774D01*
X39878000Y-53755774D01*
X39732857Y-53695298D01*
X39660286Y-53634821D01*
X39587714Y-53513869D01*
X39515143Y-53271964D01*
X39515143Y-52969583D01*
X39587714Y-52727679D01*
X39660286Y-52606726D01*
X39732857Y-52546250D01*
X39878000Y-52485774D01*
X33505321Y-34705774D02*
X33505321Y-33435774D01*
X34376178Y-34705774D02*
X33723035Y-33980060D01*
X34376178Y-33435774D02*
X33505321Y-34161488D01*
X34884178Y-33435774D02*
X35827607Y-33435774D01*
X35319607Y-33919583D01*
X35537321Y-33919583D01*
X35682464Y-33980060D01*
X35755035Y-34040536D01*
X35827607Y-34161488D01*
X35827607Y-34463869D01*
X35755035Y-34584821D01*
X35682464Y-34645298D01*
X35537321Y-34705774D01*
X35101893Y-34705774D01*
X34956750Y-34645298D01*
X34884178Y-34584821D01*
X36480750Y-34584821D02*
X36553322Y-34645298D01*
X36480750Y-34705774D01*
X36408179Y-34645298D01*
X36480750Y-34584821D01*
X36480750Y-34705774D01*
X36480750Y-33919583D02*
X36553322Y-33980060D01*
X36480750Y-34040536D01*
X36408179Y-33980060D01*
X36480750Y-33919583D01*
X36480750Y-34040536D01*
X38004750Y-34705774D02*
X37133893Y-34705774D01*
X37569321Y-34705774D02*
X37569321Y-33435774D01*
X37424178Y-33617202D01*
X37279036Y-33738155D01*
X37133893Y-33798631D01*
X59699071Y-91855774D02*
X59699071Y-90585774D01*
X60569928Y-91855774D02*
X59916785Y-91130060D01*
X60569928Y-90585774D02*
X59699071Y-91311488D01*
X61077928Y-90585774D02*
X62021357Y-90585774D01*
X61513357Y-91069583D01*
X61731071Y-91069583D01*
X61876214Y-91130060D01*
X61948785Y-91190536D01*
X62021357Y-91311488D01*
X62021357Y-91613869D01*
X61948785Y-91734821D01*
X61876214Y-91795298D01*
X61731071Y-91855774D01*
X61295643Y-91855774D01*
X61150500Y-91795298D01*
X61077928Y-91734821D01*
X62674500Y-91734821D02*
X62747072Y-91795298D01*
X62674500Y-91855774D01*
X62601929Y-91795298D01*
X62674500Y-91734821D01*
X62674500Y-91855774D01*
X62674500Y-91069583D02*
X62747072Y-91130060D01*
X62674500Y-91190536D01*
X62601929Y-91130060D01*
X62674500Y-91069583D01*
X62674500Y-91190536D01*
X63327643Y-90706726D02*
X63400214Y-90646250D01*
X63545357Y-90585774D01*
X63908214Y-90585774D01*
X64053357Y-90646250D01*
X64125928Y-90706726D01*
X64198500Y-90827679D01*
X64198500Y-90948631D01*
X64125928Y-91130060D01*
X63255071Y-91855774D01*
X64198500Y-91855774D01*
X100180321Y-91855774D02*
X100180321Y-90585774D01*
X101051178Y-91855774D02*
X100398035Y-91130060D01*
X101051178Y-90585774D02*
X100180321Y-91311488D01*
X101559178Y-90585774D02*
X102502607Y-90585774D01*
X101994607Y-91069583D01*
X102212321Y-91069583D01*
X102357464Y-91130060D01*
X102430035Y-91190536D01*
X102502607Y-91311488D01*
X102502607Y-91613869D01*
X102430035Y-91734821D01*
X102357464Y-91795298D01*
X102212321Y-91855774D01*
X101776893Y-91855774D01*
X101631750Y-91795298D01*
X101559178Y-91734821D01*
X103155750Y-91734821D02*
X103228322Y-91795298D01*
X103155750Y-91855774D01*
X103083179Y-91795298D01*
X103155750Y-91734821D01*
X103155750Y-91855774D01*
X103155750Y-91069583D02*
X103228322Y-91130060D01*
X103155750Y-91190536D01*
X103083179Y-91130060D01*
X103155750Y-91069583D01*
X103155750Y-91190536D01*
X104534607Y-91009107D02*
X104534607Y-91855774D01*
X104171750Y-90525298D02*
X103808893Y-91432440D01*
X104752321Y-91432440D01*
X81130321Y-91855774D02*
X81130321Y-90585774D01*
X82001178Y-91855774D02*
X81348035Y-91130060D01*
X82001178Y-90585774D02*
X81130321Y-91311488D01*
X82509178Y-90585774D02*
X83452607Y-90585774D01*
X82944607Y-91069583D01*
X83162321Y-91069583D01*
X83307464Y-91130060D01*
X83380035Y-91190536D01*
X83452607Y-91311488D01*
X83452607Y-91613869D01*
X83380035Y-91734821D01*
X83307464Y-91795298D01*
X83162321Y-91855774D01*
X82726893Y-91855774D01*
X82581750Y-91795298D01*
X82509178Y-91734821D01*
X84105750Y-91734821D02*
X84178322Y-91795298D01*
X84105750Y-91855774D01*
X84033179Y-91795298D01*
X84105750Y-91734821D01*
X84105750Y-91855774D01*
X84105750Y-91069583D02*
X84178322Y-91130060D01*
X84105750Y-91190536D01*
X84033179Y-91130060D01*
X84105750Y-91069583D01*
X84105750Y-91190536D01*
X84686321Y-90585774D02*
X85629750Y-90585774D01*
X85121750Y-91069583D01*
X85339464Y-91069583D01*
X85484607Y-91130060D01*
X85557178Y-91190536D01*
X85629750Y-91311488D01*
X85629750Y-91613869D01*
X85557178Y-91734821D01*
X85484607Y-91795298D01*
X85339464Y-91855774D01*
X84904036Y-91855774D01*
X84758893Y-91795298D01*
X84686321Y-91734821D01*
X195430321Y-91855774D02*
X195430321Y-90585774D01*
X196301178Y-91855774D02*
X195648035Y-91130060D01*
X196301178Y-90585774D02*
X195430321Y-91311488D01*
X196809178Y-90585774D02*
X197752607Y-90585774D01*
X197244607Y-91069583D01*
X197462321Y-91069583D01*
X197607464Y-91130060D01*
X197680035Y-91190536D01*
X197752607Y-91311488D01*
X197752607Y-91613869D01*
X197680035Y-91734821D01*
X197607464Y-91795298D01*
X197462321Y-91855774D01*
X197026893Y-91855774D01*
X196881750Y-91795298D01*
X196809178Y-91734821D01*
X198405750Y-91734821D02*
X198478322Y-91795298D01*
X198405750Y-91855774D01*
X198333179Y-91795298D01*
X198405750Y-91734821D01*
X198405750Y-91855774D01*
X198405750Y-91069583D02*
X198478322Y-91130060D01*
X198405750Y-91190536D01*
X198333179Y-91130060D01*
X198405750Y-91069583D01*
X198405750Y-91190536D01*
X199349178Y-91130060D02*
X199204036Y-91069583D01*
X199131464Y-91009107D01*
X199058893Y-90888155D01*
X199058893Y-90827679D01*
X199131464Y-90706726D01*
X199204036Y-90646250D01*
X199349178Y-90585774D01*
X199639464Y-90585774D01*
X199784607Y-90646250D01*
X199857178Y-90706726D01*
X199929750Y-90827679D01*
X199929750Y-90888155D01*
X199857178Y-91009107D01*
X199784607Y-91069583D01*
X199639464Y-91130060D01*
X199349178Y-91130060D01*
X199204036Y-91190536D01*
X199131464Y-91251012D01*
X199058893Y-91371964D01*
X199058893Y-91613869D01*
X199131464Y-91734821D01*
X199204036Y-91795298D01*
X199349178Y-91855774D01*
X199639464Y-91855774D01*
X199784607Y-91795298D01*
X199857178Y-91734821D01*
X199929750Y-91613869D01*
X199929750Y-91371964D01*
X199857178Y-91251012D01*
X199784607Y-91190536D01*
X199639464Y-91130060D01*
X216861571Y-91855774D02*
X216861571Y-90585774D01*
X217732428Y-91855774D02*
X217079285Y-91130060D01*
X217732428Y-90585774D02*
X216861571Y-91311488D01*
X218240428Y-90585774D02*
X219183857Y-90585774D01*
X218675857Y-91069583D01*
X218893571Y-91069583D01*
X219038714Y-91130060D01*
X219111285Y-91190536D01*
X219183857Y-91311488D01*
X219183857Y-91613869D01*
X219111285Y-91734821D01*
X219038714Y-91795298D01*
X218893571Y-91855774D01*
X218458143Y-91855774D01*
X218313000Y-91795298D01*
X218240428Y-91734821D01*
X219837000Y-91734821D02*
X219909572Y-91795298D01*
X219837000Y-91855774D01*
X219764429Y-91795298D01*
X219837000Y-91734821D01*
X219837000Y-91855774D01*
X219837000Y-91069583D02*
X219909572Y-91130060D01*
X219837000Y-91190536D01*
X219764429Y-91130060D01*
X219837000Y-91069583D01*
X219837000Y-91190536D01*
X220635286Y-91855774D02*
X220925571Y-91855774D01*
X221070714Y-91795298D01*
X221143286Y-91734821D01*
X221288428Y-91553393D01*
X221361000Y-91311488D01*
X221361000Y-90827679D01*
X221288428Y-90706726D01*
X221215857Y-90646250D01*
X221070714Y-90585774D01*
X220780428Y-90585774D01*
X220635286Y-90646250D01*
X220562714Y-90706726D01*
X220490143Y-90827679D01*
X220490143Y-91130060D01*
X220562714Y-91251012D01*
X220635286Y-91311488D01*
X220780428Y-91371964D01*
X221070714Y-91371964D01*
X221215857Y-91311488D01*
X221288428Y-91251012D01*
X221361000Y-91130060D01*
X185905479Y-34705800D02*
X185905479Y-33435800D01*
X186776336Y-34705800D02*
X186123193Y-33980086D01*
X186776336Y-33435800D02*
X185905479Y-34161514D01*
X187719765Y-33435800D02*
X187864908Y-33435800D01*
X188010051Y-33496276D01*
X188082622Y-33556752D01*
X188155193Y-33677705D01*
X188227765Y-33919609D01*
X188227765Y-34221990D01*
X188155193Y-34463895D01*
X188082622Y-34584847D01*
X188010051Y-34645324D01*
X187864908Y-34705800D01*
X187719765Y-34705800D01*
X187574622Y-34645324D01*
X187502051Y-34584847D01*
X187429479Y-34463895D01*
X187356908Y-34221990D01*
X187356908Y-33919609D01*
X187429479Y-33677705D01*
X187502051Y-33556752D01*
X187574622Y-33496276D01*
X187719765Y-33435800D01*
X188880908Y-34584847D02*
X188953480Y-34645324D01*
X188880908Y-34705800D01*
X188808337Y-34645324D01*
X188880908Y-34584847D01*
X188880908Y-34705800D01*
X188880908Y-33919609D02*
X188953480Y-33980086D01*
X188880908Y-34040562D01*
X188808337Y-33980086D01*
X188880908Y-33919609D01*
X188880908Y-34040562D01*
X189461479Y-33435800D02*
X190477479Y-33435800D01*
X189824336Y-34705800D01*
X128755321Y-91855774D02*
X128755321Y-90585774D01*
X129626178Y-91855774D02*
X128973035Y-91130060D01*
X129626178Y-90585774D02*
X128755321Y-91311488D01*
X130134178Y-90585774D02*
X131077607Y-90585774D01*
X130569607Y-91069583D01*
X130787321Y-91069583D01*
X130932464Y-91130060D01*
X131005035Y-91190536D01*
X131077607Y-91311488D01*
X131077607Y-91613869D01*
X131005035Y-91734821D01*
X130932464Y-91795298D01*
X130787321Y-91855774D01*
X130351893Y-91855774D01*
X130206750Y-91795298D01*
X130134178Y-91734821D01*
X131730750Y-91734821D02*
X131803322Y-91795298D01*
X131730750Y-91855774D01*
X131658179Y-91795298D01*
X131730750Y-91734821D01*
X131730750Y-91855774D01*
X131730750Y-91069583D02*
X131803322Y-91130060D01*
X131730750Y-91190536D01*
X131658179Y-91130060D01*
X131730750Y-91069583D01*
X131730750Y-91190536D01*
X133182178Y-90585774D02*
X132456464Y-90585774D01*
X132383893Y-91190536D01*
X132456464Y-91130060D01*
X132601607Y-91069583D01*
X132964464Y-91069583D01*
X133109607Y-91130060D01*
X133182178Y-91190536D01*
X133254750Y-91311488D01*
X133254750Y-91613869D01*
X133182178Y-91734821D01*
X133109607Y-91795298D01*
X132964464Y-91855774D01*
X132601607Y-91855774D01*
X132456464Y-91795298D01*
X132383893Y-91734821D01*
X166855321Y-91855774D02*
X166855321Y-90585774D01*
X167726178Y-91855774D02*
X167073035Y-91130060D01*
X167726178Y-90585774D02*
X166855321Y-91311488D01*
X168234178Y-90585774D02*
X169177607Y-90585774D01*
X168669607Y-91069583D01*
X168887321Y-91069583D01*
X169032464Y-91130060D01*
X169105035Y-91190536D01*
X169177607Y-91311488D01*
X169177607Y-91613869D01*
X169105035Y-91734821D01*
X169032464Y-91795298D01*
X168887321Y-91855774D01*
X168451893Y-91855774D01*
X168306750Y-91795298D01*
X168234178Y-91734821D01*
X169830750Y-91734821D02*
X169903322Y-91795298D01*
X169830750Y-91855774D01*
X169758179Y-91795298D01*
X169830750Y-91734821D01*
X169830750Y-91855774D01*
X169830750Y-91069583D02*
X169903322Y-91130060D01*
X169830750Y-91190536D01*
X169758179Y-91130060D01*
X169830750Y-91069583D01*
X169830750Y-91190536D01*
X171209607Y-90585774D02*
X170919321Y-90585774D01*
X170774178Y-90646250D01*
X170701607Y-90706726D01*
X170556464Y-90888155D01*
X170483893Y-91130060D01*
X170483893Y-91613869D01*
X170556464Y-91734821D01*
X170629036Y-91795298D01*
X170774178Y-91855774D01*
X171064464Y-91855774D01*
X171209607Y-91795298D01*
X171282178Y-91734821D01*
X171354750Y-91613869D01*
X171354750Y-91311488D01*
X171282178Y-91190536D01*
X171209607Y-91130060D01*
X171064464Y-91069583D01*
X170774178Y-91069583D01*
X170629036Y-91130060D01*
X170556464Y-91190536D01*
X170483893Y-91311488D01*
M02*
